<svg width="219" height="155" viewBox="0 0 219 155" fill="none" xmlns="http://www.w3.org/2000/svg">
<mask id="path-1-inside-1_17_3705" fill="white">
<path d="M102.745 46.5598C103.62 46.4286 104.81 47.4344 105.029 48.4621C105.223 49.3149 104.349 50.3426 103.353 50.4738C102.041 50.6269 101.093 49.949 100.826 48.7027C100.632 47.8499 101.652 46.7347 102.745 46.5817V46.5598Z"/>
</mask>
<path d="M102.745 46.5598C103.62 46.4286 104.81 47.4344 105.029 48.4621C105.223 49.3149 104.349 50.3426 103.353 50.4738C102.041 50.6269 101.093 49.949 100.826 48.7027C100.632 47.8499 101.652 46.7347 102.745 46.5817V46.5598Z" fill="#00474D" stroke="#00474D" stroke-width="40" mask="url(#path-1-inside-1_17_3705)"/>
<mask id="path-2-inside-2_17_3705" fill="white">
<path d="M127.615 48.9298C126.907 48.607 126.653 48.3991 126.375 48.358C122.596 47.8874 120.153 45.6656 117.298 44.0166C115.765 43.1561 114.93 41.9014 115.212 40.3692C116.407 39.6738 117.03 40.2769 117.75 40.7923C120.629 42.8265 124.071 43.9764 127.703 44.8408C127.948 44.9112 128.316 44.7545 128.995 44.6097C129.793 41.975 130.686 39.1975 131.405 36.4012C132.65 31.5636 133.721 26.7072 134.968 21.8971C135.077 21.45 136.109 20.9008 136.761 20.8678C137.824 20.8138 138.899 22.0564 138.757 23.0847C138.428 25.53 138.134 27.9735 137.562 30.3759C136.609 34.3708 135.413 38.3504 134.323 42.3522C134.127 43.0797 134.037 43.8294 133.855 44.777C139.472 46.0374 144.311 43.6668 149.287 42.945C150.8 45.1313 150.36 46.3403 147.67 46.7804C143.722 47.4499 139.731 47.9837 135.764 48.3506C132.276 48.6656 132.132 48.5625 131.169 51.316C129.535 55.9802 127.973 60.6959 126.409 65.3841C126.063 66.4503 125.753 67.5424 125.303 68.5864C124.282 70.9564 124.565 73.2878 125.262 75.6259C125.696 77.0665 126.74 77.8139 128.626 78.2701C135.781 79.9217 141.478 77.535 146.727 74.0122C149.928 71.8626 152.3 69.0928 154.569 66.3283C155.176 65.58 155.493 64.598 155.71 63.6762C156.689 58.9901 157.667 54.2764 158.541 49.568C159.616 43.6627 160.622 37.7609 161.558 31.8351C161.974 29.137 163.269 26.753 164.878 24.4359C165.728 23.1785 168.6 22.3428 170.107 22.7907C171.789 23.2849 173.181 25.2013 172.865 26.7352C172.498 28.5753 172.132 30.4153 171.628 32.2623C170.601 36.1781 169.819 40.1643 168.337 43.9652C166.024 49.8782 163.187 55.6521 160.629 61.4947C159.847 63.2731 159.203 65.072 158.593 66.8692C158.391 67.4866 158.535 68.1417 158.535 69.2456C159.43 68.7034 159.93 68.4572 160.289 68.1354C162.311 66.3769 164.263 64.5944 166.251 62.8376C166.74 62.3989 167.261 61.9309 167.897 61.6502C173.239 59.0884 178.028 59.7561 179.451 65.4519C180.137 68.1768 180.143 71.0191 180.422 73.8199C180.602 75.6046 180.508 77.4032 180.893 79.15C181.702 82.7242 185.048 84.5414 189.475 83.82C194.513 82.9848 199.033 81.5686 202.934 78.5005C206.276 75.8471 208.578 73.0533 209.451 69.4212C209.668 68.4995 210.194 67.562 211.559 67.3824C213.264 67.1578 214.863 68.5118 214.119 69.8191C212.169 73.285 210.507 76.957 206.75 79.5763C204.575 81.0942 202.325 82.5055 200.04 83.9185C197.26 85.6603 193.842 85.9994 190.547 86.6634C188.339 87.1066 186.222 87.352 183.984 86.7756C180.943 85.9917 178.717 84.504 177.943 82.0318C177.295 79.9121 177.087 77.6873 176.812 75.4934C176.41 72.3677 176.417 69.1935 175.676 66.1402C174.885 62.841 171.862 62.3597 168.854 64.8581C167.742 65.7701 166.667 66.7354 165.663 67.7247C164.107 69.2388 162.551 70.7528 161.207 72.3665C160.57 73.1716 160.465 74.2532 160.042 75.1854C158.737 77.9562 158.935 81.1199 156.51 83.5888C156.186 83.9088 155.792 84.2048 155.466 84.4973C153.938 84.2713 153.522 83.6577 153.621 82.4935C153.879 80.0242 154 77.5619 154.121 75.0995C154.155 74.5459 153.982 73.9751 153.897 73.179C153.093 73.5234 152.519 73.6906 152.056 73.99C149.605 75.4943 147.305 77.2117 144.741 78.5562C140.113 80.9989 135.192 82.6009 129.45 81.54C127.537 81.1956 125.348 81.3895 123.861 80.1678C122.88 79.3345 122.16 78.2671 121.409 77.2565C120.958 76.6447 120.705 75.9123 120.234 74.9704C118.316 76.7512 116.765 78.3478 114.998 79.7897C112.022 82.259 108.72 84.4412 104.518 85.4548C102.146 86.0168 99.8845 86.1591 97.4773 85.067C93.5835 83.3052 93.4893 83.4479 91.2497 81.1882C88.8774 82.3021 86.5428 83.4693 84.1671 84.5282C81.0886 85.8988 77.7885 85.9283 74.6116 85.1788C73.0069 84.8187 71.63 83.7018 69.9222 82.795C68.4636 83.6693 66.8456 84.745 65.0784 85.635C61.3434 87.508 57.2206 88.1313 52.8884 87.606C50.3236 87.2946 48.8266 85.9079 47.9878 84.0462C47.4662 82.8584 47.0133 81.6671 46.4438 80.2609C42.2147 80.8343 38.121 81.3732 33.9931 81.9139C34.0275 82.4641 33.9779 82.7702 34.1271 82.9558C36.6 85.6453 37.7615 88.8153 39.2916 91.8286C41.2574 95.7581 43.2215 99.6601 45.1873 103.59C48.1789 109.62 49.7785 115.941 51.0713 122.306C52.4603 129.107 52.5515 136.057 50.3951 142.818C49.0729 146.969 46.5917 150.738 41.1407 152.671C38.2473 153.701 35.9482 153.238 33.4004 152.098C27.4183 149.393 25.2449 144.895 23.8976 139.857C21.6888 131.497 20.7502 123.1 21.6923 114.524C21.9333 112.332 21.4852 110.119 21.5874 107.906C21.8669 102.483 22.2836 97.0522 22.63 91.5979C22.7529 89.715 22.8072 87.8356 22.8289 85.9854C22.8236 85.351 22.5079 84.7046 22.2779 83.778C21.1466 84.3874 20.245 84.8195 19.4172 85.3307C16.6405 87.1274 13.6064 88.1094 10.0234 88.0152C8.85255 87.9919 7.66634 88.2729 6.55713 88.136C5.86452 88.0607 5.07231 87.4938 4.79958 86.9833C4.64177 86.6601 5.17639 85.8602 5.67518 85.5865C6.40536 85.1631 7.4767 84.6948 8.24133 84.8215C13.8303 85.6418 17.4827 83.0002 21.1317 80.3036C22.8405 79.0302 24.0659 77.7261 24.1012 75.5441C24.1738 71.7595 25.1052 67.9589 25.5224 64.1844C25.9242 60.7143 26.0518 57.2581 26.385 53.7915C26.5355 52.3488 26.859 50.9248 27.114 49.5044C27.5777 46.4727 27.9728 43.4445 28.5051 40.4093C29.1914 36.5384 29.8777 32.6675 30.7028 28.8171C31.5228 24.8842 32.3068 20.9255 33.473 17.0302C34.0673 14.9854 35.1793 12.9695 36.4748 11.1375C37.5784 9.53605 39.3592 8.31415 41.9582 8.62381C44.3823 8.88715 45.8039 10.1673 46.7387 11.9137C48.8794 15.8895 49.4893 20.1362 49.3431 24.3937C49.0711 32.1349 47.6231 39.7702 45.3127 47.3665C43.773 52.4398 41.707 57.3467 39.4644 62.1798C37.28 66.8443 35.2054 71.6136 31.5106 75.7752C30.3538 77.0758 30.7809 77.8545 32.7147 77.9771C34.7839 78.0653 36.9114 77.9849 39.0011 77.8512C41.0908 77.7176 43.2046 77.4171 45.2891 77.2009C47.3068 77.0157 48.853 76.4405 49.6393 74.7171C51.5496 70.6185 54.66 67.0109 57.6298 63.3552C60.5037 59.8149 66.3027 57.9475 71.1906 59.1069C74.4035 59.8821 76.2882 61.9667 75.9392 64.6338C75.799 65.6897 75.5438 66.5581 76.7321 67.4086C77.8123 68.1817 77.4286 69.1947 77.0484 70.2627C76.0463 72.9353 74.9773 75.639 74.3593 78.4025C73.7395 81.1386 75.6566 82.6419 79.2584 82.4867C82.6201 82.3437 85.246 80.8857 87.649 79.1631C89.6903 77.7072 90.4989 75.7895 91.2611 73.681C92.6554 69.581 94.6788 65.6422 96.4554 61.6055C96.8768 60.6458 97.228 59.6621 97.6837 58.7006C98.1103 57.8234 98.9364 57.2847 100.19 57.5247C101.549 57.8145 102.047 58.6172 101.735 59.6817C101.512 60.5209 101.115 61.3138 100.822 62.1291C99.4293 65.7047 97.896 69.2322 96.6782 72.8541C96.0975 74.5671 95.9026 76.3984 95.9443 78.1626C96.0206 81.0289 98.5755 82.831 102.208 82.6191C103.648 82.546 105.172 82.1651 106.408 81.578C111.183 79.2934 114.62 75.9452 117.55 72.2088C118.41 71.1164 119.342 70.0756 119.992 68.9111C120.917 67.2083 121.736 65.4557 122.382 63.6842C123.67 60.0863 124.749 56.4439 125.968 52.8494C126.403 51.5579 127.048 50.3109 127.683 48.9263L127.615 48.9298ZM27.1629 81.0462C26.7201 84.96 26.1503 88.4939 25.925 92.0378C25.5103 98.0476 25.2001 104.08 25.0956 110.101C24.993 116.702 24.479 123.324 25.6124 129.89C26.4161 134.486 26.7397 139.106 29.0451 143.515C30.2561 145.827 31.9796 147.533 34.4057 148.928C36.369 150.07 38.4742 150.184 40.7009 149.492C44.2784 148.399 45.7947 145.701 46.742 143.252C48.6263 138.188 49.2933 132.911 48.3437 127.633C47.5091 123.094 46.7775 118.55 45.5693 114.085C44.452 109.974 42.9919 105.881 41.1958 101.916C39.163 97.465 36.6931 93.1748 34.2557 88.8552C32.6674 86.0105 30.6454 83.3809 27.1629 81.0462ZM28.4189 73.0895C28.6949 73.1031 28.9709 73.1167 29.2812 73.1286C31.7712 70.0492 33.5548 66.6746 35.059 63.2313C36.9828 58.8008 39.2221 54.4647 40.9728 50.0153C43.3762 43.9046 44.2846 37.5386 45.2976 31.1949C45.4704 30.1098 45.849 29.0143 45.8504 27.9379C45.8718 24.9839 45.6857 22.0128 45.7414 19.057C45.7679 16.1854 44.3135 13.8307 42.4099 11.4435C40.1283 11.8076 39.1103 13.1288 38.4764 14.5409C37.6335 16.4603 36.861 18.4038 36.3678 20.4158C35.2737 24.9146 34.4917 29.4527 33.4336 33.9773C31.8584 40.6807 31.0084 47.4301 30.0213 54.1865C29.3677 58.5801 28.9901 62.9873 28.6126 67.3945C28.4571 69.3067 28.5074 71.2084 28.4891 73.1136L28.4189 73.0895ZM53.2207 75.3357C54.2836 75.2817 54.9008 75.2504 55.4802 75.1658C58.751 74.6686 61.5912 73.3378 64.428 71.9519C67.7978 70.2906 70.2692 68.0125 71.8421 65.1177C72.829 63.3014 72.27 62.6122 70.1165 61.728C67.363 60.5982 63.3554 62.5127 61.4376 64.2935C59.0982 66.4821 57.0829 68.9026 55.1378 71.3471C54.2776 72.4395 53.9506 73.8084 53.255 75.3339L53.2207 75.3357ZM70.5414 72.3592C69.9346 72.5556 69.5266 72.6315 69.1941 72.8139C64.4891 75.6745 59.3999 77.8923 53.6967 79.0924C51.9996 79.4545 51.297 80.3181 51.3866 81.7487C51.4848 83.3168 51.9015 83.9304 53.8148 84.2748C56.9436 84.806 59.9334 84.7646 62.9708 83.2858C66.3407 81.6245 68.0731 79.0803 69.9426 76.5292C70.8303 75.3251 71.1968 74.037 70.5414 72.3592ZM162.83 46.6458C163.176 46.6834 163.558 46.7468 163.905 46.7844C165.054 43.7179 166.447 40.6942 167.317 37.5591C168.216 34.3398 168.661 31.0054 169.246 27.7192C169.349 27.162 168.968 26.5742 168.83 26.0292C168.556 26.0431 168.282 26.0571 168.042 26.0692C163.804 32.549 163.489 39.6024 162.864 46.644L162.83 46.6458Z"/>
</mask>
<path d="M127.615 48.9298C126.907 48.607 126.653 48.3991 126.375 48.358C122.596 47.8874 120.153 45.6656 117.298 44.0166C115.765 43.1561 114.93 41.9014 115.212 40.3692C116.407 39.6738 117.03 40.2769 117.75 40.7923C120.629 42.8265 124.071 43.9764 127.703 44.8408C127.948 44.9112 128.316 44.7545 128.995 44.6097C129.793 41.975 130.686 39.1975 131.405 36.4012C132.65 31.5636 133.721 26.7072 134.968 21.8971C135.077 21.45 136.109 20.9008 136.761 20.8678C137.824 20.8138 138.899 22.0564 138.757 23.0847C138.428 25.53 138.134 27.9735 137.562 30.3759C136.609 34.3708 135.413 38.3504 134.323 42.3522C134.127 43.0797 134.037 43.8294 133.855 44.777C139.472 46.0374 144.311 43.6668 149.287 42.945C150.8 45.1313 150.36 46.3403 147.67 46.7804C143.722 47.4499 139.731 47.9837 135.764 48.3506C132.276 48.6656 132.132 48.5625 131.169 51.316C129.535 55.9802 127.973 60.6959 126.409 65.3841C126.063 66.4503 125.753 67.5424 125.303 68.5864C124.282 70.9564 124.565 73.2878 125.262 75.6259C125.696 77.0665 126.74 77.8139 128.626 78.2701C135.781 79.9217 141.478 77.535 146.727 74.0122C149.928 71.8626 152.3 69.0928 154.569 66.3283C155.176 65.58 155.493 64.598 155.71 63.6762C156.689 58.9901 157.667 54.2764 158.541 49.568C159.616 43.6627 160.622 37.7609 161.558 31.8351C161.974 29.137 163.269 26.753 164.878 24.4359C165.728 23.1785 168.6 22.3428 170.107 22.7907C171.789 23.2849 173.181 25.2013 172.865 26.7352C172.498 28.5753 172.132 30.4153 171.628 32.2623C170.601 36.1781 169.819 40.1643 168.337 43.9652C166.024 49.8782 163.187 55.6521 160.629 61.4947C159.847 63.2731 159.203 65.072 158.593 66.8692C158.391 67.4866 158.535 68.1417 158.535 69.2456C159.43 68.7034 159.93 68.4572 160.289 68.1354C162.311 66.3769 164.263 64.5944 166.251 62.8376C166.74 62.3989 167.261 61.9309 167.897 61.6502C173.239 59.0884 178.028 59.7561 179.451 65.4519C180.137 68.1768 180.143 71.0191 180.422 73.8199C180.602 75.6046 180.508 77.4032 180.893 79.15C181.702 82.7242 185.048 84.5414 189.475 83.82C194.513 82.9848 199.033 81.5686 202.934 78.5005C206.276 75.8471 208.578 73.0533 209.451 69.4212C209.668 68.4995 210.194 67.562 211.559 67.3824C213.264 67.1578 214.863 68.5118 214.119 69.8191C212.169 73.285 210.507 76.957 206.75 79.5763C204.575 81.0942 202.325 82.5055 200.04 83.9185C197.26 85.6603 193.842 85.9994 190.547 86.6634C188.339 87.1066 186.222 87.352 183.984 86.7756C180.943 85.9917 178.717 84.504 177.943 82.0318C177.295 79.9121 177.087 77.6873 176.812 75.4934C176.41 72.3677 176.417 69.1935 175.676 66.1402C174.885 62.841 171.862 62.3597 168.854 64.8581C167.742 65.7701 166.667 66.7354 165.663 67.7247C164.107 69.2388 162.551 70.7528 161.207 72.3665C160.57 73.1716 160.465 74.2532 160.042 75.1854C158.737 77.9562 158.935 81.1199 156.51 83.5888C156.186 83.9088 155.792 84.2048 155.466 84.4973C153.938 84.2713 153.522 83.6577 153.621 82.4935C153.879 80.0242 154 77.5619 154.121 75.0995C154.155 74.5459 153.982 73.9751 153.897 73.179C153.093 73.5234 152.519 73.6906 152.056 73.99C149.605 75.4943 147.305 77.2117 144.741 78.5562C140.113 80.9989 135.192 82.6009 129.45 81.54C127.537 81.1956 125.348 81.3895 123.861 80.1678C122.88 79.3345 122.16 78.2671 121.409 77.2565C120.958 76.6447 120.705 75.9123 120.234 74.9704C118.316 76.7512 116.765 78.3478 114.998 79.7897C112.022 82.259 108.72 84.4412 104.518 85.4548C102.146 86.0168 99.8845 86.1591 97.4773 85.067C93.5835 83.3052 93.4893 83.4479 91.2497 81.1882C88.8774 82.3021 86.5428 83.4693 84.1671 84.5282C81.0886 85.8988 77.7885 85.9283 74.6116 85.1788C73.0069 84.8187 71.63 83.7018 69.9222 82.795C68.4636 83.6693 66.8456 84.745 65.0784 85.635C61.3434 87.508 57.2206 88.1313 52.8884 87.606C50.3236 87.2946 48.8266 85.9079 47.9878 84.0462C47.4662 82.8584 47.0133 81.6671 46.4438 80.2609C42.2147 80.8343 38.121 81.3732 33.9931 81.9139C34.0275 82.4641 33.9779 82.7702 34.1271 82.9558C36.6 85.6453 37.7615 88.8153 39.2916 91.8286C41.2574 95.7581 43.2215 99.6601 45.1873 103.59C48.1789 109.62 49.7785 115.941 51.0713 122.306C52.4603 129.107 52.5515 136.057 50.3951 142.818C49.0729 146.969 46.5917 150.738 41.1407 152.671C38.2473 153.701 35.9482 153.238 33.4004 152.098C27.4183 149.393 25.2449 144.895 23.8976 139.857C21.6888 131.497 20.7502 123.1 21.6923 114.524C21.9333 112.332 21.4852 110.119 21.5874 107.906C21.8669 102.483 22.2836 97.0522 22.63 91.5979C22.7529 89.715 22.8072 87.8356 22.8289 85.9854C22.8236 85.351 22.5079 84.7046 22.2779 83.778C21.1466 84.3874 20.245 84.8195 19.4172 85.3307C16.6405 87.1274 13.6064 88.1094 10.0234 88.0152C8.85255 87.9919 7.66634 88.2729 6.55713 88.136C5.86452 88.0607 5.07231 87.4938 4.79958 86.9833C4.64177 86.6601 5.17639 85.8602 5.67518 85.5865C6.40536 85.1631 7.4767 84.6948 8.24133 84.8215C13.8303 85.6418 17.4827 83.0002 21.1317 80.3036C22.8405 79.0302 24.0659 77.7261 24.1012 75.5441C24.1738 71.7595 25.1052 67.9589 25.5224 64.1844C25.9242 60.7143 26.0518 57.2581 26.385 53.7915C26.5355 52.3488 26.859 50.9248 27.114 49.5044C27.5777 46.4727 27.9728 43.4445 28.5051 40.4093C29.1914 36.5384 29.8777 32.6675 30.7028 28.8171C31.5228 24.8842 32.3068 20.9255 33.473 17.0302C34.0673 14.9854 35.1793 12.9695 36.4748 11.1375C37.5784 9.53605 39.3592 8.31415 41.9582 8.62381C44.3823 8.88715 45.8039 10.1673 46.7387 11.9137C48.8794 15.8895 49.4893 20.1362 49.3431 24.3937C49.0711 32.1349 47.6231 39.7702 45.3127 47.3665C43.773 52.4398 41.707 57.3467 39.4644 62.1798C37.28 66.8443 35.2054 71.6136 31.5106 75.7752C30.3538 77.0758 30.7809 77.8545 32.7147 77.9771C34.7839 78.0653 36.9114 77.9849 39.0011 77.8512C41.0908 77.7176 43.2046 77.4171 45.2891 77.2009C47.3068 77.0157 48.853 76.4405 49.6393 74.7171C51.5496 70.6185 54.66 67.0109 57.6298 63.3552C60.5037 59.8149 66.3027 57.9475 71.1906 59.1069C74.4035 59.8821 76.2882 61.9667 75.9392 64.6338C75.799 65.6897 75.5438 66.5581 76.7321 67.4086C77.8123 68.1817 77.4286 69.1947 77.0484 70.2627C76.0463 72.9353 74.9773 75.639 74.3593 78.4025C73.7395 81.1386 75.6566 82.6419 79.2584 82.4867C82.6201 82.3437 85.246 80.8857 87.649 79.1631C89.6903 77.7072 90.4989 75.7895 91.2611 73.681C92.6554 69.581 94.6788 65.6422 96.4554 61.6055C96.8768 60.6458 97.228 59.6621 97.6837 58.7006C98.1103 57.8234 98.9364 57.2847 100.19 57.5247C101.549 57.8145 102.047 58.6172 101.735 59.6817C101.512 60.5209 101.115 61.3138 100.822 62.1291C99.4293 65.7047 97.896 69.2322 96.6782 72.8541C96.0975 74.5671 95.9026 76.3984 95.9443 78.1626C96.0206 81.0289 98.5755 82.831 102.208 82.6191C103.648 82.546 105.172 82.1651 106.408 81.578C111.183 79.2934 114.62 75.9452 117.55 72.2088C118.41 71.1164 119.342 70.0756 119.992 68.9111C120.917 67.2083 121.736 65.4557 122.382 63.6842C123.67 60.0863 124.749 56.4439 125.968 52.8494C126.403 51.5579 127.048 50.3109 127.683 48.9263L127.615 48.9298ZM27.1629 81.0462C26.7201 84.96 26.1503 88.4939 25.925 92.0378C25.5103 98.0476 25.2001 104.08 25.0956 110.101C24.993 116.702 24.479 123.324 25.6124 129.89C26.4161 134.486 26.7397 139.106 29.0451 143.515C30.2561 145.827 31.9796 147.533 34.4057 148.928C36.369 150.07 38.4742 150.184 40.7009 149.492C44.2784 148.399 45.7947 145.701 46.742 143.252C48.6263 138.188 49.2933 132.911 48.3437 127.633C47.5091 123.094 46.7775 118.55 45.5693 114.085C44.452 109.974 42.9919 105.881 41.1958 101.916C39.163 97.465 36.6931 93.1748 34.2557 88.8552C32.6674 86.0105 30.6454 83.3809 27.1629 81.0462ZM28.4189 73.0895C28.6949 73.1031 28.9709 73.1167 29.2812 73.1286C31.7712 70.0492 33.5548 66.6746 35.059 63.2313C36.9828 58.8008 39.2221 54.4647 40.9728 50.0153C43.3762 43.9046 44.2846 37.5386 45.2976 31.1949C45.4704 30.1098 45.849 29.0143 45.8504 27.9379C45.8718 24.9839 45.6857 22.0128 45.7414 19.057C45.7679 16.1854 44.3135 13.8307 42.4099 11.4435C40.1283 11.8076 39.1103 13.1288 38.4764 14.5409C37.6335 16.4603 36.861 18.4038 36.3678 20.4158C35.2737 24.9146 34.4917 29.4527 33.4336 33.9773C31.8584 40.6807 31.0084 47.4301 30.0213 54.1865C29.3677 58.5801 28.9901 62.9873 28.6126 67.3945C28.4571 69.3067 28.5074 71.2084 28.4891 73.1136L28.4189 73.0895ZM53.2207 75.3357C54.2836 75.2817 54.9008 75.2504 55.4802 75.1658C58.751 74.6686 61.5912 73.3378 64.428 71.9519C67.7978 70.2906 70.2692 68.0125 71.8421 65.1177C72.829 63.3014 72.27 62.6122 70.1165 61.728C67.363 60.5982 63.3554 62.5127 61.4376 64.2935C59.0982 66.4821 57.0829 68.9026 55.1378 71.3471C54.2776 72.4395 53.9506 73.8084 53.255 75.3339L53.2207 75.3357ZM70.5414 72.3592C69.9346 72.5556 69.5266 72.6315 69.1941 72.8139C64.4891 75.6745 59.3999 77.8923 53.6967 79.0924C51.9996 79.4545 51.297 80.3181 51.3866 81.7487C51.4848 83.3168 51.9015 83.9304 53.8148 84.2748C56.9436 84.806 59.9334 84.7646 62.9708 83.2858C66.3407 81.6245 68.0731 79.0803 69.9426 76.5292C70.8303 75.3251 71.1968 74.037 70.5414 72.3592ZM162.83 46.6458C163.176 46.6834 163.558 46.7468 163.905 46.7844C165.054 43.7179 166.447 40.6942 167.317 37.5591C168.216 34.3398 168.661 31.0054 169.246 27.7192C169.349 27.162 168.968 26.5742 168.83 26.0292C168.556 26.0431 168.282 26.0571 168.042 26.0692C163.804 32.549 163.489 39.6024 162.864 46.644L162.83 46.6458Z" fill="#00474D" stroke="#00474D" stroke-width="40" mask="url(#path-2-inside-2_17_3705)"/>
</svg>
