<svg width="24" height="24" viewBox="0 0 24 24" fill="none" xmlns="http://www.w3.org/2000/svg">
<path d="M19 0H5C2.24 0 0 2.24 0 5V19C0 21.76 2.24 24 5 24H19C21.76 24 24 21.76 24 19V5C24 2.24 21.76 0 19 0ZM22 19C22 20.65 20.65 22 19 22H5C3.35 22 2 20.65 2 19V5C2 3.35 3.35 2 5 2H19C20.65 2 22 3.35 22 5V19Z" fill="white"/>
<path d="M12 5C8.14 5 5 8.14 5 12C5 15.86 8.14 19 12 19C15.86 19 19 15.86 19 12C19 8.14 15.86 5 12 5ZM12 17C9.24 17 7 14.76 7 12C7 9.24 9.24 7 12 7C14.76 7 17 9.24 17 12C17 14.76 14.76 17 12 17Z" fill="white"/>
<path d="M19 6C19.5523 6 20 5.55228 20 5C20 4.44772 19.5523 4 19 4C18.4477 4 18 4.44772 18 5C18 5.55228 18.4477 6 19 6Z" fill="white"/>
</svg>
