<svg width="197" height="45" viewBox="0 0 197 45" fill="none" xmlns="http://www.w3.org/2000/svg">
<g clip-path="url(#clip0_17_3666)">
<mask id="path-1-inside-1_17_3666" fill="white">
<path d="M18.2075 27.9028C18.1908 27.2964 18.1908 26.8332 18.1657 26.37C18.0571 24.854 18.5584 23.5064 19.2436 22.201C19.4107 21.8809 19.6196 21.5777 19.7868 21.2577C20.2547 20.3481 21.0318 19.7333 21.8005 19.1353C22.3019 18.7394 22.937 18.6384 23.5637 18.6552C24.2238 18.6721 24.5497 18.8995 25.1179 19.708C25.4855 19.4469 25.9033 19.4048 26.3211 19.5985C27.4742 20.146 28.4937 19.7164 29.463 19.1184C30.1398 18.6973 30.7498 18.1751 31.4182 17.7372C31.6856 17.5603 32.0199 17.4171 32.3374 17.3666C32.9223 17.274 33.6159 17.5182 33.7161 18.3857C33.7663 18.8405 33.8498 19.2953 33.9334 19.8933C34.3846 19.4048 34.7606 18.9921 35.1367 18.5794C35.6965 17.9814 36.365 17.6277 37.2006 17.6951C37.9777 17.754 38.1782 17.973 38.2618 18.7563C38.2952 19.0932 38.2868 19.4301 38.2952 19.8596C38.4957 19.7585 38.6294 19.7164 38.7297 19.6322C39.0723 19.3543 39.4065 19.0763 39.7324 18.7731C40.2839 18.2509 40.9524 18.1415 41.671 18.1667C41.7713 18.1667 41.8799 18.192 41.9718 18.2341C42.4732 18.4615 43.1918 19.6659 43.1082 20.2302C42.9745 21.1229 42.9077 22.0157 42.5902 22.8916C42.2643 23.8096 42.1306 24.8119 42.022 25.7889C41.9133 26.7658 42.4063 27.1869 43.3923 27.0269C44.0775 26.9174 44.7544 26.7406 45.3309 26.311C45.6234 26.1005 45.9493 25.9489 46.2919 25.7552C46.2919 25.6709 46.2919 25.5614 46.2835 25.4688C45.9576 23.5485 46.5425 21.8725 47.6455 20.3481C48.08 19.7501 48.548 19.1521 49.0911 18.6552C49.4337 18.3352 49.9183 18.1162 50.3696 17.9899C51.7901 17.6109 52.6925 18.6552 52.4084 20.1038C52.1243 21.5356 51.3388 22.6137 50.3779 23.6075C49.676 24.3234 48.9156 24.9803 48.1887 25.6709C48.0215 25.8225 47.8878 26.0078 47.7541 26.1594C47.9881 26.7321 48.3808 26.9427 48.8989 27.0269C50.0855 27.2206 51.2636 27.3807 52.3499 26.6732C52.6925 26.4458 53.0351 26.2015 53.3192 25.9068C54.1799 25.0477 54.9152 24.1044 55.4834 23.0011C56.1937 21.6283 56.9875 20.2976 57.798 18.9753C58.0487 18.5626 58.4247 18.2088 58.8091 17.9056C59.6363 17.2487 60.4051 17.5687 60.5972 18.6131C60.6223 18.7647 60.6725 18.9079 60.7477 19.1774C61.0485 18.9921 61.3326 18.8742 61.5415 18.6805C61.9175 18.3183 62.3771 18.192 62.8366 18.0235C63.4968 17.7877 63.9981 18.032 64.4076 18.5205C64.7251 18.891 65.0008 19.2869 65.2933 19.6743C65.7612 19.3711 66.1874 19.0426 66.6553 18.7984C67.6664 18.2762 68.385 18.63 68.6858 19.7501C68.9783 20.8029 68.9281 21.8472 68.7276 22.9084C68.5855 23.6412 68.4936 24.3992 68.4853 25.1403C68.4686 25.9068 69.3209 26.6227 70.0478 26.5132C70.2066 26.4879 70.3988 26.3026 70.4656 26.1426C70.616 25.7804 70.6829 25.393 70.7915 25.0224C71.2511 23.5064 72.0198 22.1589 73.173 21.0892C74.0169 20.306 74.9361 19.5901 76.1393 19.3627C77.1755 19.169 77.7771 19.5732 77.8774 20.6513C77.8857 20.7776 77.8774 20.9208 77.9192 21.0387C78.3119 21.9736 77.9191 22.8074 77.5766 23.6328C77.1504 24.6687 76.9499 25.7046 77.2423 26.8079C77.3844 27.347 77.5431 27.4901 78.1113 27.507C79.0305 27.5323 79.9079 27.4228 80.6265 26.749C80.8855 26.5132 81.0693 26.2773 81.0777 25.8983C81.1028 24.4918 81.554 23.1695 82.1305 21.9315C82.6988 20.7187 83.668 19.767 84.8713 19.1774C85.6066 18.8152 86.4339 18.8321 87.1023 19.489C87.1775 19.5564 87.2611 19.6154 87.3447 19.6743C87.3614 19.6912 87.3948 19.6912 87.5285 19.7164C87.6121 19.3627 87.704 19.0005 87.7792 18.6384C88.08 17.1897 88.339 15.7327 88.6816 14.3009C88.9908 13.0207 89.4671 11.7743 89.7512 10.4857C90.0854 8.98649 90.6202 7.55471 91.1216 6.11451C91.3555 5.44073 91.6313 4.77537 92.1159 4.19424C92.5755 3.63837 93.1604 3.36044 93.7788 3.10777C94.1297 2.96459 94.5308 3.28464 94.5642 3.73102C94.5976 4.24477 94.606 4.77537 94.5642 5.28913C94.4472 6.86409 94.0712 8.40536 93.7453 9.94663C93.5364 10.9489 93.1688 11.8753 92.776 12.8102C92.258 14.0567 91.8987 15.3621 91.3722 16.6002C90.7205 18.1162 90.0687 19.649 89.1496 21.0303C88.8487 21.4851 88.7234 21.9652 88.7485 22.5042C88.7819 23.3885 88.8654 24.2476 89.4253 25.014C89.7679 25.4772 90.1272 25.8057 90.6954 25.9236C91.7733 26.151 92.6591 26.0331 93.6283 25.2751C93.7286 24.6518 93.7537 23.9865 93.9542 23.3885C94.2049 22.6305 94.5475 21.8894 94.9653 21.2072C95.3246 20.626 95.8176 20.1038 96.3106 19.6238C96.5947 19.3458 96.9791 19.1437 97.3551 19.0005C97.8147 18.8152 98.2826 18.8742 98.6085 19.3122C98.926 19.7248 99.0764 20.1544 98.809 20.6766C98.6419 20.9966 98.5834 21.3672 98.4247 21.6956C98.1991 22.1504 97.9317 22.5968 97.6643 23.0264C97.0877 23.9444 96.1769 24.5171 95.3747 25.1993C94.8901 25.612 94.8065 25.8983 95.0906 26.4037C95.1909 26.5805 95.4165 26.7743 95.6004 26.7995C97.1462 26.968 98.6336 27.069 100.012 25.991C101.14 25.1066 102.018 24.0623 102.761 22.8748C103.154 22.2431 103.213 22.2515 103.756 22.8495C103.204 24.3823 102.193 25.5446 100.848 26.4542C100.681 26.5721 100.48 26.6816 100.363 26.8416C99.8201 27.5912 99.0263 27.7933 98.1991 27.8607C97.4303 27.9197 96.6532 27.9618 95.8845 27.9113C95.2327 27.8691 94.6394 27.5912 94.255 27.0017C94.1297 26.8079 93.996 26.6227 93.879 26.4458C90.5868 27.6586 88.9156 27.0438 87.7792 23.8012C87.4784 23.8602 87.2862 24.0707 87.1943 24.3318C86.9603 24.9719 86.4924 25.4014 85.9994 25.8225C85.5899 26.1763 85.2223 26.5721 84.8128 26.9258C84.5621 27.1448 84.2864 27.347 84.0023 27.5238C83.3505 27.9534 82.6403 28.0797 81.9801 27.6081C81.5122 27.2712 81.178 27.4565 80.8019 27.7175C80.0499 28.2566 79.2143 28.5513 78.2868 28.585C77.2924 28.6187 76.7493 28.3071 76.3315 27.3891C76.2229 27.1533 76.1393 26.909 75.9973 26.5637C75.8051 26.7574 75.638 26.8837 75.5126 27.0522C74.8609 27.9113 74.1088 28.6356 73.1479 29.1409C72.7969 29.3178 72.446 29.402 72.1118 29.2672C71.4684 29.0146 70.7832 28.7703 70.5408 27.9955C70.4489 27.7007 70.24 27.5996 69.9643 27.5659C69.8139 27.5491 69.6551 27.507 69.5131 27.4733C67.9756 27.0859 67.2904 26.0752 67.4993 24.4918C67.6413 23.3885 67.8001 22.2852 67.9254 21.1735C67.9588 20.8703 67.9087 20.5418 67.8251 20.247C67.6831 19.6912 67.4241 19.5564 66.9144 19.7754C66.6637 19.8849 66.4213 20.0617 66.2459 20.2723C65.3685 21.2745 64.9173 22.4705 64.6833 23.7675C64.6332 24.037 64.5078 24.3065 64.3491 24.5339C64.2655 24.6434 64.0148 24.7276 63.8811 24.6855C63.7474 24.6434 63.5887 24.4413 63.5803 24.2981C63.5636 23.9696 63.597 23.6243 63.6639 23.3043C63.8477 22.361 64.0817 21.4346 64.2572 20.4913C64.3658 19.9101 64.0148 19.3206 63.4466 19.0426C62.9954 18.8237 62.5693 18.9079 62.1264 19.3711C61.8423 19.6659 61.6083 20.0112 61.3493 20.3397C61.1738 20.5671 61.0234 20.8113 60.8229 21.0134C60.3884 21.4514 60.029 21.8557 59.9538 22.5631C59.8034 23.9528 59.4776 25.3172 59.2436 26.6985C59.1182 27.4396 59.0598 28.1892 58.9261 28.9219C58.8425 29.3767 58.4331 29.3683 58.0654 29.4357C57.6476 28.9051 57.9233 28.3745 58.0153 27.8607C58.149 27.0775 58.3077 26.2942 58.4581 25.5109C58.5584 24.9719 58.6587 24.4413 58.7673 23.9023C59.0681 22.4536 59.0848 20.9545 59.5945 19.548C59.6781 19.3122 59.5945 19.0174 59.5778 18.5457C59.2603 18.8489 59.043 19.0005 58.9177 19.1942C58.3328 20.1038 57.7395 21.0134 57.1964 21.9567C56.6365 22.9169 56.1519 23.9107 55.5837 24.8708C55.3664 25.2414 55.0573 25.5951 54.723 25.8562C53.8623 26.53 53.2273 27.4986 52.1327 27.8776C51.5645 28.0713 51.013 28.2566 50.403 28.1555C50.2024 28.1218 49.9852 28.105 49.7846 28.1302C48.6649 28.2734 47.7458 27.8355 46.9854 27.0859C46.6344 26.749 46.3921 26.7911 46.0495 26.9932C45.1805 27.5154 44.2948 27.9449 43.267 28.0797C42.5233 28.1723 41.9468 27.9281 41.4454 27.448C41.295 27.3049 41.178 27.0522 41.1613 26.8416C41.0861 25.9405 41.0025 25.0561 41.2866 24.1465C41.6459 22.959 41.8214 21.7209 42.1139 20.5081C42.2476 19.9522 41.9718 19.5985 41.6125 19.2953C41.2866 19.0174 40.919 19.1521 40.6014 19.3458C39.9831 19.7164 39.4734 20.1628 39.0723 20.8197C38.3537 21.9904 38.0362 23.3043 37.5766 24.5592C37.3343 25.2246 37.1671 25.393 36.858 25.3004C36.5739 25.2161 36.4652 24.8961 36.5572 24.2644C36.7243 23.0853 36.9081 21.8978 37.0919 20.7187C37.2591 19.6827 37.2674 19.388 37.0752 18.79C36.6825 18.6468 36.3984 18.8826 36.1059 19.1016C35.0197 19.927 34.4264 21.1061 33.8582 22.3105C33.0142 24.0791 32.4293 25.9236 32.0784 27.8607C32.0366 28.1134 31.953 28.3829 31.8026 28.585C31.7024 28.7282 31.4517 28.8545 31.3096 28.8293C31.1509 28.7956 30.9587 28.585 30.9252 28.425C30.8668 28.1808 30.9002 27.9028 30.9503 27.6502C31.3681 25.8057 31.811 23.9612 32.2288 22.1083C32.421 21.2493 32.5881 20.3902 32.7134 19.5143C32.7636 19.169 32.6633 18.8068 32.6215 18.411C31.8945 18.4025 31.435 18.8405 31.0088 19.1858C29.8724 20.087 28.6608 20.7692 27.2152 20.9713C27.1651 20.9713 27.1233 21.0134 27.0564 21.0556C27.1066 21.9146 27.1316 22.7905 27.2319 23.658C27.3155 24.3571 27.0982 24.9887 26.906 25.6288C26.789 26.0163 26.6721 26.4121 26.4799 26.7743C25.7446 28.1808 24.4661 28.9977 23.079 29.5452C22.0679 29.9494 20.9399 30.1937 19.8369 29.6968C19.6531 29.6125 19.4275 29.5452 19.3105 29.402C18.9094 28.9135 18.408 28.8714 17.8398 28.9219C17.0711 28.9893 16.3107 28.9219 15.5419 28.7366C13.7788 28.3324 12.6257 26.6395 12.4753 24.8961C12.3667 23.6496 12.5672 22.4621 12.7678 21.2577C12.8597 20.6934 12.9349 20.1207 12.9516 19.5564C12.9683 19.0258 12.6508 18.8152 12.1411 18.9416C11.5812 19.0848 11.0882 19.3795 10.6955 19.7838C10.1774 20.3144 9.68441 20.8871 9.2499 21.4935C8.72347 22.2262 8.18869 22.9758 7.78761 23.7844C7.37816 24.6182 7.06899 25.5109 6.84338 26.4121C6.50914 27.7175 6.27518 29.0483 5.99943 30.3621C5.9493 30.5811 5.88245 30.7917 5.82396 31.0022C5.08028 30.8675 4.95494 30.758 5.0385 30.1684C5.26411 28.5177 5.52314 26.8753 5.77382 25.233C5.93258 24.2055 6.07464 23.178 6.25011 22.1504C6.48408 20.7102 6.75982 19.2785 6.98543 17.8467C7.11077 17.0803 7.16927 16.297 7.25282 15.5221C7.26954 15.3453 7.25282 15.1684 7.23611 14.8231C6.62613 15.2526 6.0997 15.5811 5.61506 15.9769C5.03014 16.4486 4.51207 16.996 3.92715 17.4508C3.501 17.7793 3.008 18.032 2.52335 18.2678C1.92172 18.5626 1.29503 18.8068 0.676687 19.0679C0.451077 19.169 0.233822 19.2279 0.0667026 18.9584C-0.125484 18.6552 0.0667026 18.4447 0.267246 18.2931C0.467788 18.1415 0.718467 18.0404 0.952434 17.9393C2.40637 17.3161 3.72661 16.4991 4.87138 15.3705C5.61506 14.6294 6.48408 14.0061 7.2946 13.3324C7.64555 13.0376 7.80432 12.6754 7.87952 12.2038C8.2639 9.79503 8.63156 7.37784 9.30839 5.02804C9.70948 3.62995 10.1022 2.24028 10.9796 1.04432C11.5144 0.31159 12.1745 -0.0842549 13.0936 0.0589231C13.1688 0.0673454 13.2524 0.0673454 13.3276 0.0673454C14.3721 0.101034 14.6144 0.345279 14.7648 1.37279C14.9737 2.77088 14.5894 4.04264 14.0462 5.29755C13.8875 5.67655 13.7287 6.06398 13.5866 6.4514C13.1354 7.74842 12.2664 8.79278 11.4893 9.87925C10.6788 11.0078 9.76797 12.069 8.94073 13.1892C8.69841 13.5092 8.49786 13.9051 8.4143 14.2925C8.22212 15.2526 8.11349 16.238 7.96308 17.2066C7.81267 18.1751 7.64555 19.1521 7.5035 20.1207C7.38652 20.9124 7.28625 21.6956 7.28625 22.5294C7.55364 22.1841 7.82103 21.8472 8.08842 21.5019C8.66498 20.7439 9.18305 19.9186 9.83482 19.2279C10.6704 18.3267 11.7149 17.7962 13.0101 17.9309C13.4362 17.9814 13.7621 18.1751 13.8457 18.6131C13.9209 18.9921 13.9961 19.388 13.9627 19.767C13.8875 20.5418 13.7454 21.3166 13.595 22.0746C13.3777 23.1864 13.3945 24.3065 13.5699 25.4098C13.8123 26.9343 14.9821 27.8776 16.6282 27.9702C17.1129 27.9955 17.5975 27.9534 18.1991 27.9281L18.2075 27.9028ZM8.98251 10.9236C9.041 10.9741 9.09949 11.0331 9.16634 11.0836C9.38359 10.8899 9.6092 10.7046 9.82646 10.5109C10.6537 9.74449 11.1383 8.73382 11.7567 7.8158C12.0157 7.42838 12.2915 7.04938 12.492 6.62827C12.868 5.82815 13.1856 5.0112 13.5365 4.20266C13.8791 3.41939 13.9961 2.61086 13.8958 1.77706C13.854 1.44859 13.854 1.07801 13.4362 0.960102C13.0184 0.842191 12.6257 0.833769 12.2748 1.15381C11.6146 1.75179 11.0882 2.45926 10.8208 3.31833C10.2443 5.17122 9.65098 7.03253 9.30839 8.9528C9.19141 9.60974 9.09949 10.2751 8.99922 10.932L8.98251 10.9236ZM19.2436 27.3554C20.0959 27.2964 20.6976 26.8164 21.2491 26.2858C22.327 25.2582 23.0707 23.9696 23.831 22.7063C24.2154 22.0662 24.2572 21.3166 24.1903 20.5839C24.1151 19.6912 23.6472 19.4132 22.8033 19.6912C22.0429 19.9354 21.4329 20.4323 20.9984 21.0892C20.497 21.8388 20.0625 22.6389 19.6447 23.4306C19.0598 24.5424 18.9261 25.7467 19.0849 26.9764C19.1016 27.0943 19.1768 27.2038 19.2353 27.347L19.2436 27.3554ZM88.6565 19.4132C88.7318 19.4385 88.7986 19.4638 88.8738 19.489C89.2331 18.8405 89.6509 18.2257 89.9434 17.5519C90.4865 16.297 90.9879 15.0084 91.4641 13.7282C91.9154 12.5154 92.3833 11.3026 92.7092 10.0561C93.0685 8.68329 93.2941 7.26836 93.5281 5.87026C93.6033 5.41546 93.7788 4.91013 93.503 4.42164C93.0434 4.47217 92.868 4.83433 92.7175 5.12911C92.3332 5.88711 91.9655 6.66195 91.673 7.46207C91.3472 8.35482 91.0798 9.28127 90.8291 10.1993C90.2609 12.2712 89.6927 14.3515 89.183 16.4402C88.9407 17.4171 88.832 18.4194 88.6649 19.4132H88.6565ZM20.0876 28.4082C20.3967 28.8545 20.7561 28.9219 21.1655 28.9303C22.469 28.9472 23.5971 28.5008 24.5162 27.5912C24.9675 27.1448 25.402 26.6479 25.7195 26.1005C26.4465 24.8371 26.3128 23.439 26.1289 22.0662C26.0454 21.4682 25.7613 20.9124 25.2933 20.3397C25.2432 20.6766 25.168 20.904 25.1847 21.1314C25.2683 22.2094 24.8505 23.1022 24.2488 23.9444C23.831 24.5339 23.4467 25.1488 23.0539 25.7552C22.6696 26.3363 22.2935 26.909 21.6668 27.2796C21.1237 27.5996 20.6307 28.0123 20.0876 28.4082ZM71.5018 26.3447C71.9697 26.151 72.3039 26.1005 72.5212 25.9068C73.7077 24.8456 74.9194 23.8012 76.0223 22.6474C76.5655 22.0831 76.7577 21.2577 76.7493 20.4492C76.0391 20.306 75.4541 20.4828 74.769 20.9882C73.2482 22.0999 72.1953 23.5485 71.602 25.3425C71.5185 25.5951 71.5436 25.8815 71.5101 26.3447H71.5018ZM47.3698 24.9382C47.704 24.7192 47.963 24.6013 48.1636 24.4076C48.8906 23.7086 49.6008 23.0011 50.2944 22.2684C50.9545 21.5693 51.3054 20.7018 51.4725 19.767C51.5728 19.2195 51.3305 18.6973 50.5952 18.9247C49.9685 19.1269 49.4504 19.4722 49.0242 19.9775C48.4226 20.6934 48.0048 21.5272 47.587 22.3526C47.1943 23.1443 47.069 23.9612 47.3614 24.9382H47.3698ZM82.2559 25.2751C82.4314 25.1824 82.5651 25.1488 82.6486 25.0645C83.4926 24.2392 84.3699 23.4306 85.1638 22.5547C85.6317 22.0494 86.0328 21.4598 86.3837 20.8618C86.6929 20.3397 86.3503 19.868 85.7403 19.9186C85.4896 19.9438 85.2139 20.0112 85.0134 20.1544C84.5705 20.4576 84.1193 20.7692 83.7516 21.165C82.7489 22.2262 82.4982 23.6243 82.1556 24.9719C82.1389 25.0308 82.1974 25.1151 82.2642 25.2751H82.2559ZM87.6371 21.2661C87.5034 21.2745 87.4199 21.2661 87.3697 21.2914C87.2862 21.3419 87.211 21.4177 87.1525 21.5019C86.1498 23.0516 85.0217 24.475 83.4926 25.5446C83.1166 25.8057 82.8575 26.2352 82.5567 26.589C82.8742 26.9595 83.1583 26.8332 83.4424 26.6816C84.6373 26.0247 85.5816 25.0898 86.3169 23.9444C86.5007 23.6664 86.7263 23.4054 86.8767 23.1106C87.1776 22.5294 87.587 21.9904 87.6371 21.2661ZM94.8734 24.2055C96.4694 23.178 97.564 21.9315 97.9149 20.0954C97.6392 19.868 97.3969 20.0196 97.1546 20.1796C96.3524 20.7018 95.8009 21.443 95.4332 22.302C95.1909 22.8579 94.7815 23.3717 94.8734 24.2055ZM71.5185 27.6417C72.2956 28.4166 72.6298 28.425 73.3735 27.8944C74.1088 27.3722 74.6353 26.6985 75.0196 25.8815C75.1868 25.5193 75.3956 25.1824 75.5878 24.8287C75.5377 24.7866 75.4876 24.7445 75.4374 24.7024C74.9862 25.1066 74.5099 25.4772 74.0838 25.9068C73.4571 26.5384 72.822 27.1196 71.9363 27.347C71.8026 27.3807 71.694 27.507 71.5185 27.6333V27.6417Z"/>
</mask>
<path d="M18.2075 27.9028C18.1908 27.2964 18.1908 26.8332 18.1657 26.37C18.0571 24.854 18.5584 23.5064 19.2436 22.201C19.4107 21.8809 19.6196 21.5777 19.7868 21.2577C20.2547 20.3481 21.0318 19.7333 21.8005 19.1353C22.3019 18.7394 22.937 18.6384 23.5637 18.6552C24.2238 18.6721 24.5497 18.8995 25.1179 19.708C25.4855 19.4469 25.9033 19.4048 26.3211 19.5985C27.4742 20.146 28.4937 19.7164 29.463 19.1184C30.1398 18.6973 30.7498 18.1751 31.4182 17.7372C31.6856 17.5603 32.0199 17.4171 32.3374 17.3666C32.9223 17.274 33.6159 17.5182 33.7161 18.3857C33.7663 18.8405 33.8498 19.2953 33.9334 19.8933C34.3846 19.4048 34.7606 18.9921 35.1367 18.5794C35.6965 17.9814 36.365 17.6277 37.2006 17.6951C37.9777 17.754 38.1782 17.973 38.2618 18.7563C38.2952 19.0932 38.2868 19.4301 38.2952 19.8596C38.4957 19.7585 38.6294 19.7164 38.7297 19.6322C39.0723 19.3543 39.4065 19.0763 39.7324 18.7731C40.2839 18.2509 40.9524 18.1415 41.671 18.1667C41.7713 18.1667 41.8799 18.192 41.9718 18.2341C42.4732 18.4615 43.1918 19.6659 43.1082 20.2302C42.9745 21.1229 42.9077 22.0157 42.5902 22.8916C42.2643 23.8096 42.1306 24.8119 42.022 25.7889C41.9133 26.7658 42.4063 27.1869 43.3923 27.0269C44.0775 26.9174 44.7544 26.7406 45.3309 26.311C45.6234 26.1005 45.9493 25.9489 46.2919 25.7552C46.2919 25.6709 46.2919 25.5614 46.2835 25.4688C45.9576 23.5485 46.5425 21.8725 47.6455 20.3481C48.08 19.7501 48.548 19.1521 49.0911 18.6552C49.4337 18.3352 49.9183 18.1162 50.3696 17.9899C51.7901 17.6109 52.6925 18.6552 52.4084 20.1038C52.1243 21.5356 51.3388 22.6137 50.3779 23.6075C49.676 24.3234 48.9156 24.9803 48.1887 25.6709C48.0215 25.8225 47.8878 26.0078 47.7541 26.1594C47.9881 26.7321 48.3808 26.9427 48.8989 27.0269C50.0855 27.2206 51.2636 27.3807 52.3499 26.6732C52.6925 26.4458 53.0351 26.2015 53.3192 25.9068C54.1799 25.0477 54.9152 24.1044 55.4834 23.0011C56.1937 21.6283 56.9875 20.2976 57.798 18.9753C58.0487 18.5626 58.4247 18.2088 58.8091 17.9056C59.6363 17.2487 60.4051 17.5687 60.5972 18.6131C60.6223 18.7647 60.6725 18.9079 60.7477 19.1774C61.0485 18.9921 61.3326 18.8742 61.5415 18.6805C61.9175 18.3183 62.3771 18.192 62.8366 18.0235C63.4968 17.7877 63.9981 18.032 64.4076 18.5205C64.7251 18.891 65.0008 19.2869 65.2933 19.6743C65.7612 19.3711 66.1874 19.0426 66.6553 18.7984C67.6664 18.2762 68.385 18.63 68.6858 19.7501C68.9783 20.8029 68.9281 21.8472 68.7276 22.9084C68.5855 23.6412 68.4936 24.3992 68.4853 25.1403C68.4686 25.9068 69.3209 26.6227 70.0478 26.5132C70.2066 26.4879 70.3988 26.3026 70.4656 26.1426C70.616 25.7804 70.6829 25.393 70.7915 25.0224C71.2511 23.5064 72.0198 22.1589 73.173 21.0892C74.0169 20.306 74.9361 19.5901 76.1393 19.3627C77.1755 19.169 77.7771 19.5732 77.8774 20.6513C77.8857 20.7776 77.8774 20.9208 77.9192 21.0387C78.3119 21.9736 77.9191 22.8074 77.5766 23.6328C77.1504 24.6687 76.9499 25.7046 77.2423 26.8079C77.3844 27.347 77.5431 27.4901 78.1113 27.507C79.0305 27.5323 79.9079 27.4228 80.6265 26.749C80.8855 26.5132 81.0693 26.2773 81.0777 25.8983C81.1028 24.4918 81.554 23.1695 82.1305 21.9315C82.6988 20.7187 83.668 19.767 84.8713 19.1774C85.6066 18.8152 86.4339 18.8321 87.1023 19.489C87.1775 19.5564 87.2611 19.6154 87.3447 19.6743C87.3614 19.6912 87.3948 19.6912 87.5285 19.7164C87.6121 19.3627 87.704 19.0005 87.7792 18.6384C88.08 17.1897 88.339 15.7327 88.6816 14.3009C88.9908 13.0207 89.4671 11.7743 89.7512 10.4857C90.0854 8.98649 90.6202 7.55471 91.1216 6.11451C91.3555 5.44073 91.6313 4.77537 92.1159 4.19424C92.5755 3.63837 93.1604 3.36044 93.7788 3.10777C94.1297 2.96459 94.5308 3.28464 94.5642 3.73102C94.5976 4.24477 94.606 4.77537 94.5642 5.28913C94.4472 6.86409 94.0712 8.40536 93.7453 9.94663C93.5364 10.9489 93.1688 11.8753 92.776 12.8102C92.258 14.0567 91.8987 15.3621 91.3722 16.6002C90.7205 18.1162 90.0687 19.649 89.1496 21.0303C88.8487 21.4851 88.7234 21.9652 88.7485 22.5042C88.7819 23.3885 88.8654 24.2476 89.4253 25.014C89.7679 25.4772 90.1272 25.8057 90.6954 25.9236C91.7733 26.151 92.6591 26.0331 93.6283 25.2751C93.7286 24.6518 93.7537 23.9865 93.9542 23.3885C94.2049 22.6305 94.5475 21.8894 94.9653 21.2072C95.3246 20.626 95.8176 20.1038 96.3106 19.6238C96.5947 19.3458 96.9791 19.1437 97.3551 19.0005C97.8147 18.8152 98.2826 18.8742 98.6085 19.3122C98.926 19.7248 99.0764 20.1544 98.809 20.6766C98.6419 20.9966 98.5834 21.3672 98.4247 21.6956C98.1991 22.1504 97.9317 22.5968 97.6643 23.0264C97.0877 23.9444 96.1769 24.5171 95.3747 25.1993C94.8901 25.612 94.8065 25.8983 95.0906 26.4037C95.1909 26.5805 95.4165 26.7743 95.6004 26.7995C97.1462 26.968 98.6336 27.069 100.012 25.991C101.14 25.1066 102.018 24.0623 102.761 22.8748C103.154 22.2431 103.213 22.2515 103.756 22.8495C103.204 24.3823 102.193 25.5446 100.848 26.4542C100.681 26.5721 100.48 26.6816 100.363 26.8416C99.8201 27.5912 99.0263 27.7933 98.1991 27.8607C97.4303 27.9197 96.6532 27.9618 95.8845 27.9113C95.2327 27.8691 94.6394 27.5912 94.255 27.0017C94.1297 26.8079 93.996 26.6227 93.879 26.4458C90.5868 27.6586 88.9156 27.0438 87.7792 23.8012C87.4784 23.8602 87.2862 24.0707 87.1943 24.3318C86.9603 24.9719 86.4924 25.4014 85.9994 25.8225C85.5899 26.1763 85.2223 26.5721 84.8128 26.9258C84.5621 27.1448 84.2864 27.347 84.0023 27.5238C83.3505 27.9534 82.6403 28.0797 81.9801 27.6081C81.5122 27.2712 81.178 27.4565 80.8019 27.7175C80.0499 28.2566 79.2143 28.5513 78.2868 28.585C77.2924 28.6187 76.7493 28.3071 76.3315 27.3891C76.2229 27.1533 76.1393 26.909 75.9973 26.5637C75.8051 26.7574 75.638 26.8837 75.5126 27.0522C74.8609 27.9113 74.1088 28.6356 73.1479 29.1409C72.7969 29.3178 72.446 29.402 72.1118 29.2672C71.4684 29.0146 70.7832 28.7703 70.5408 27.9955C70.4489 27.7007 70.24 27.5996 69.9643 27.5659C69.8139 27.5491 69.6551 27.507 69.5131 27.4733C67.9756 27.0859 67.2904 26.0752 67.4993 24.4918C67.6413 23.3885 67.8001 22.2852 67.9254 21.1735C67.9588 20.8703 67.9087 20.5418 67.8251 20.247C67.6831 19.6912 67.4241 19.5564 66.9144 19.7754C66.6637 19.8849 66.4213 20.0617 66.2459 20.2723C65.3685 21.2745 64.9173 22.4705 64.6833 23.7675C64.6332 24.037 64.5078 24.3065 64.3491 24.5339C64.2655 24.6434 64.0148 24.7276 63.8811 24.6855C63.7474 24.6434 63.5887 24.4413 63.5803 24.2981C63.5636 23.9696 63.597 23.6243 63.6639 23.3043C63.8477 22.361 64.0817 21.4346 64.2572 20.4913C64.3658 19.9101 64.0148 19.3206 63.4466 19.0426C62.9954 18.8237 62.5693 18.9079 62.1264 19.3711C61.8423 19.6659 61.6083 20.0112 61.3493 20.3397C61.1738 20.5671 61.0234 20.8113 60.8229 21.0134C60.3884 21.4514 60.029 21.8557 59.9538 22.5631C59.8034 23.9528 59.4776 25.3172 59.2436 26.6985C59.1182 27.4396 59.0598 28.1892 58.9261 28.9219C58.8425 29.3767 58.4331 29.3683 58.0654 29.4357C57.6476 28.9051 57.9233 28.3745 58.0153 27.8607C58.149 27.0775 58.3077 26.2942 58.4581 25.5109C58.5584 24.9719 58.6587 24.4413 58.7673 23.9023C59.0681 22.4536 59.0848 20.9545 59.5945 19.548C59.6781 19.3122 59.5945 19.0174 59.5778 18.5457C59.2603 18.8489 59.043 19.0005 58.9177 19.1942C58.3328 20.1038 57.7395 21.0134 57.1964 21.9567C56.6365 22.9169 56.1519 23.9107 55.5837 24.8708C55.3664 25.2414 55.0573 25.5951 54.723 25.8562C53.8623 26.53 53.2273 27.4986 52.1327 27.8776C51.5645 28.0713 51.013 28.2566 50.403 28.1555C50.2024 28.1218 49.9852 28.105 49.7846 28.1302C48.6649 28.2734 47.7458 27.8355 46.9854 27.0859C46.6344 26.749 46.3921 26.7911 46.0495 26.9932C45.1805 27.5154 44.2948 27.9449 43.267 28.0797C42.5233 28.1723 41.9468 27.9281 41.4454 27.448C41.295 27.3049 41.178 27.0522 41.1613 26.8416C41.0861 25.9405 41.0025 25.0561 41.2866 24.1465C41.6459 22.959 41.8214 21.7209 42.1139 20.5081C42.2476 19.9522 41.9718 19.5985 41.6125 19.2953C41.2866 19.0174 40.919 19.1521 40.6014 19.3458C39.9831 19.7164 39.4734 20.1628 39.0723 20.8197C38.3537 21.9904 38.0362 23.3043 37.5766 24.5592C37.3343 25.2246 37.1671 25.393 36.858 25.3004C36.5739 25.2161 36.4652 24.8961 36.5572 24.2644C36.7243 23.0853 36.9081 21.8978 37.0919 20.7187C37.2591 19.6827 37.2674 19.388 37.0752 18.79C36.6825 18.6468 36.3984 18.8826 36.1059 19.1016C35.0197 19.927 34.4264 21.1061 33.8582 22.3105C33.0142 24.0791 32.4293 25.9236 32.0784 27.8607C32.0366 28.1134 31.953 28.3829 31.8026 28.585C31.7024 28.7282 31.4517 28.8545 31.3096 28.8293C31.1509 28.7956 30.9587 28.585 30.9252 28.425C30.8668 28.1808 30.9002 27.9028 30.9503 27.6502C31.3681 25.8057 31.811 23.9612 32.2288 22.1083C32.421 21.2493 32.5881 20.3902 32.7134 19.5143C32.7636 19.169 32.6633 18.8068 32.6215 18.411C31.8945 18.4025 31.435 18.8405 31.0088 19.1858C29.8724 20.087 28.6608 20.7692 27.2152 20.9713C27.1651 20.9713 27.1233 21.0134 27.0564 21.0556C27.1066 21.9146 27.1316 22.7905 27.2319 23.658C27.3155 24.3571 27.0982 24.9887 26.906 25.6288C26.789 26.0163 26.6721 26.4121 26.4799 26.7743C25.7446 28.1808 24.4661 28.9977 23.079 29.5452C22.0679 29.9494 20.9399 30.1937 19.8369 29.6968C19.6531 29.6125 19.4275 29.5452 19.3105 29.402C18.9094 28.9135 18.408 28.8714 17.8398 28.9219C17.0711 28.9893 16.3107 28.9219 15.5419 28.7366C13.7788 28.3324 12.6257 26.6395 12.4753 24.8961C12.3667 23.6496 12.5672 22.4621 12.7678 21.2577C12.8597 20.6934 12.9349 20.1207 12.9516 19.5564C12.9683 19.0258 12.6508 18.8152 12.1411 18.9416C11.5812 19.0848 11.0882 19.3795 10.6955 19.7838C10.1774 20.3144 9.68441 20.8871 9.2499 21.4935C8.72347 22.2262 8.18869 22.9758 7.78761 23.7844C7.37816 24.6182 7.06899 25.5109 6.84338 26.4121C6.50914 27.7175 6.27518 29.0483 5.99943 30.3621C5.9493 30.5811 5.88245 30.7917 5.82396 31.0022C5.08028 30.8675 4.95494 30.758 5.0385 30.1684C5.26411 28.5177 5.52314 26.8753 5.77382 25.233C5.93258 24.2055 6.07464 23.178 6.25011 22.1504C6.48408 20.7102 6.75982 19.2785 6.98543 17.8467C7.11077 17.0803 7.16927 16.297 7.25282 15.5221C7.26954 15.3453 7.25282 15.1684 7.23611 14.8231C6.62613 15.2526 6.0997 15.5811 5.61506 15.9769C5.03014 16.4486 4.51207 16.996 3.92715 17.4508C3.501 17.7793 3.008 18.032 2.52335 18.2678C1.92172 18.5626 1.29503 18.8068 0.676687 19.0679C0.451077 19.169 0.233822 19.2279 0.0667026 18.9584C-0.125484 18.6552 0.0667026 18.4447 0.267246 18.2931C0.467788 18.1415 0.718467 18.0404 0.952434 17.9393C2.40637 17.3161 3.72661 16.4991 4.87138 15.3705C5.61506 14.6294 6.48408 14.0061 7.2946 13.3324C7.64555 13.0376 7.80432 12.6754 7.87952 12.2038C8.2639 9.79503 8.63156 7.37784 9.30839 5.02804C9.70948 3.62995 10.1022 2.24028 10.9796 1.04432C11.5144 0.31159 12.1745 -0.0842549 13.0936 0.0589231C13.1688 0.0673454 13.2524 0.0673454 13.3276 0.0673454C14.3721 0.101034 14.6144 0.345279 14.7648 1.37279C14.9737 2.77088 14.5894 4.04264 14.0462 5.29755C13.8875 5.67655 13.7287 6.06398 13.5866 6.4514C13.1354 7.74842 12.2664 8.79278 11.4893 9.87925C10.6788 11.0078 9.76797 12.069 8.94073 13.1892C8.69841 13.5092 8.49786 13.9051 8.4143 14.2925C8.22212 15.2526 8.11349 16.238 7.96308 17.2066C7.81267 18.1751 7.64555 19.1521 7.5035 20.1207C7.38652 20.9124 7.28625 21.6956 7.28625 22.5294C7.55364 22.1841 7.82103 21.8472 8.08842 21.5019C8.66498 20.7439 9.18305 19.9186 9.83482 19.2279C10.6704 18.3267 11.7149 17.7962 13.0101 17.9309C13.4362 17.9814 13.7621 18.1751 13.8457 18.6131C13.9209 18.9921 13.9961 19.388 13.9627 19.767C13.8875 20.5418 13.7454 21.3166 13.595 22.0746C13.3777 23.1864 13.3945 24.3065 13.5699 25.4098C13.8123 26.9343 14.9821 27.8776 16.6282 27.9702C17.1129 27.9955 17.5975 27.9534 18.1991 27.9281L18.2075 27.9028ZM8.98251 10.9236C9.041 10.9741 9.09949 11.0331 9.16634 11.0836C9.38359 10.8899 9.6092 10.7046 9.82646 10.5109C10.6537 9.74449 11.1383 8.73382 11.7567 7.8158C12.0157 7.42838 12.2915 7.04938 12.492 6.62827C12.868 5.82815 13.1856 5.0112 13.5365 4.20266C13.8791 3.41939 13.9961 2.61086 13.8958 1.77706C13.854 1.44859 13.854 1.07801 13.4362 0.960102C13.0184 0.842191 12.6257 0.833769 12.2748 1.15381C11.6146 1.75179 11.0882 2.45926 10.8208 3.31833C10.2443 5.17122 9.65098 7.03253 9.30839 8.9528C9.19141 9.60974 9.09949 10.2751 8.99922 10.932L8.98251 10.9236ZM19.2436 27.3554C20.0959 27.2964 20.6976 26.8164 21.2491 26.2858C22.327 25.2582 23.0707 23.9696 23.831 22.7063C24.2154 22.0662 24.2572 21.3166 24.1903 20.5839C24.1151 19.6912 23.6472 19.4132 22.8033 19.6912C22.0429 19.9354 21.4329 20.4323 20.9984 21.0892C20.497 21.8388 20.0625 22.6389 19.6447 23.4306C19.0598 24.5424 18.9261 25.7467 19.0849 26.9764C19.1016 27.0943 19.1768 27.2038 19.2353 27.347L19.2436 27.3554ZM88.6565 19.4132C88.7318 19.4385 88.7986 19.4638 88.8738 19.489C89.2331 18.8405 89.6509 18.2257 89.9434 17.5519C90.4865 16.297 90.9879 15.0084 91.4641 13.7282C91.9154 12.5154 92.3833 11.3026 92.7092 10.0561C93.0685 8.68329 93.2941 7.26836 93.5281 5.87026C93.6033 5.41546 93.7788 4.91013 93.503 4.42164C93.0434 4.47217 92.868 4.83433 92.7175 5.12911C92.3332 5.88711 91.9655 6.66195 91.673 7.46207C91.3472 8.35482 91.0798 9.28127 90.8291 10.1993C90.2609 12.2712 89.6927 14.3515 89.183 16.4402C88.9407 17.4171 88.832 18.4194 88.6649 19.4132H88.6565ZM20.0876 28.4082C20.3967 28.8545 20.7561 28.9219 21.1655 28.9303C22.469 28.9472 23.5971 28.5008 24.5162 27.5912C24.9675 27.1448 25.402 26.6479 25.7195 26.1005C26.4465 24.8371 26.3128 23.439 26.1289 22.0662C26.0454 21.4682 25.7613 20.9124 25.2933 20.3397C25.2432 20.6766 25.168 20.904 25.1847 21.1314C25.2683 22.2094 24.8505 23.1022 24.2488 23.9444C23.831 24.5339 23.4467 25.1488 23.0539 25.7552C22.6696 26.3363 22.2935 26.909 21.6668 27.2796C21.1237 27.5996 20.6307 28.0123 20.0876 28.4082ZM71.5018 26.3447C71.9697 26.151 72.3039 26.1005 72.5212 25.9068C73.7077 24.8456 74.9194 23.8012 76.0223 22.6474C76.5655 22.0831 76.7577 21.2577 76.7493 20.4492C76.0391 20.306 75.4541 20.4828 74.769 20.9882C73.2482 22.0999 72.1953 23.5485 71.602 25.3425C71.5185 25.5951 71.5436 25.8815 71.5101 26.3447H71.5018ZM47.3698 24.9382C47.704 24.7192 47.963 24.6013 48.1636 24.4076C48.8906 23.7086 49.6008 23.0011 50.2944 22.2684C50.9545 21.5693 51.3054 20.7018 51.4725 19.767C51.5728 19.2195 51.3305 18.6973 50.5952 18.9247C49.9685 19.1269 49.4504 19.4722 49.0242 19.9775C48.4226 20.6934 48.0048 21.5272 47.587 22.3526C47.1943 23.1443 47.069 23.9612 47.3614 24.9382H47.3698ZM82.2559 25.2751C82.4314 25.1824 82.5651 25.1488 82.6486 25.0645C83.4926 24.2392 84.3699 23.4306 85.1638 22.5547C85.6317 22.0494 86.0328 21.4598 86.3837 20.8618C86.6929 20.3397 86.3503 19.868 85.7403 19.9186C85.4896 19.9438 85.2139 20.0112 85.0134 20.1544C84.5705 20.4576 84.1193 20.7692 83.7516 21.165C82.7489 22.2262 82.4982 23.6243 82.1556 24.9719C82.1389 25.0308 82.1974 25.1151 82.2642 25.2751H82.2559ZM87.6371 21.2661C87.5034 21.2745 87.4199 21.2661 87.3697 21.2914C87.2862 21.3419 87.211 21.4177 87.1525 21.5019C86.1498 23.0516 85.0217 24.475 83.4926 25.5446C83.1166 25.8057 82.8575 26.2352 82.5567 26.589C82.8742 26.9595 83.1583 26.8332 83.4424 26.6816C84.6373 26.0247 85.5816 25.0898 86.3169 23.9444C86.5007 23.6664 86.7263 23.4054 86.8767 23.1106C87.1776 22.5294 87.587 21.9904 87.6371 21.2661ZM94.8734 24.2055C96.4694 23.178 97.564 21.9315 97.9149 20.0954C97.6392 19.868 97.3969 20.0196 97.1546 20.1796C96.3524 20.7018 95.8009 21.443 95.4332 22.302C95.1909 22.8579 94.7815 23.3717 94.8734 24.2055ZM71.5185 27.6417C72.2956 28.4166 72.6298 28.425 73.3735 27.8944C74.1088 27.3722 74.6353 26.6985 75.0196 25.8815C75.1868 25.5193 75.3956 25.1824 75.5878 24.8287C75.5377 24.7866 75.4876 24.7445 75.4374 24.7024C74.9862 25.1066 74.5099 25.4772 74.0838 25.9068C73.4571 26.5384 72.822 27.1196 71.9363 27.347C71.8026 27.3807 71.694 27.507 71.5185 27.6333V27.6417Z" fill="white" stroke="white" stroke-width="40" mask="url(#path-1-inside-1_17_3666)"/>
<mask id="path-2-inside-2_17_3666" fill="white">
<path d="M176.235 14.5367C176.068 14.4272 176.01 14.3599 175.943 14.343C175.032 14.1409 174.472 13.425 173.804 12.8776C173.445 12.5912 173.261 12.1954 173.353 11.7321C173.653 11.5384 173.796 11.7321 173.963 11.9006C174.631 12.5659 175.45 12.9702 176.319 13.2902C176.378 13.3155 176.469 13.2734 176.637 13.2397C176.871 12.448 177.13 11.6142 177.347 10.772C177.723 9.31495 178.057 7.84948 178.433 6.40086C178.466 6.2661 178.726 6.1145 178.884 6.1145C179.143 6.1145 179.386 6.51034 179.336 6.82197C179.219 7.56312 179.11 8.30428 178.934 9.02859C178.642 10.233 178.291 11.4289 177.965 12.6333C177.907 12.8523 177.873 13.0797 177.815 13.366C179.16 13.8377 180.372 13.1892 181.592 13.046C181.926 13.7366 181.801 14.0988 181.14 14.1914C180.171 14.3346 179.193 14.4357 178.224 14.4862C177.372 14.5283 177.338 14.4946 177.063 15.32C176.595 16.7181 176.144 18.133 175.692 19.5395C175.592 19.8596 175.5 20.1881 175.375 20.4997C175.091 21.2071 175.124 21.923 175.258 22.6473C175.341 23.0937 175.584 23.338 176.035 23.5064C177.748 24.1212 179.168 23.4811 180.497 22.4873C181.308 21.8809 181.926 21.0724 182.519 20.2639C182.678 20.0449 182.77 19.7501 182.837 19.4722C183.146 18.0572 183.455 16.6339 183.739 15.2105C184.09 13.425 184.424 11.6395 184.742 9.84555C184.884 9.02859 185.235 8.32112 185.661 7.63892C185.887 7.26834 186.597 7.05779 186.956 7.21781C187.357 7.39468 187.666 8.00108 187.566 8.4643C187.449 9.02017 187.332 9.57604 187.182 10.1319C186.873 11.311 186.622 12.5154 186.204 13.6524C185.552 15.4211 184.775 17.1392 184.065 18.8826C183.848 19.4132 183.664 19.9522 183.488 20.4913C183.43 20.6765 183.455 20.8787 183.438 21.2156C183.664 21.064 183.789 20.9966 183.881 20.9039C184.399 20.3986 184.901 19.8849 185.41 19.3795C185.536 19.2532 185.669 19.1184 185.828 19.0426C187.165 18.3436 188.318 18.6215 188.577 20.3818C188.703 21.224 188.661 22.0915 188.686 22.9505C188.703 23.498 188.652 24.0454 188.719 24.5845C188.861 25.6878 189.647 26.2942 190.733 26.1426C191.97 25.9657 193.089 25.6035 194.084 24.7276C194.936 23.9696 195.538 23.1527 195.805 22.0578C195.872 21.7799 196.014 21.5019 196.348 21.4682C196.766 21.4261 197.134 21.8641 196.933 22.2515C196.407 23.279 195.947 24.3739 194.995 25.1151C194.443 25.5446 193.875 25.9404 193.298 26.3363C192.596 26.8248 191.761 26.8753 190.95 27.0269C190.407 27.128 189.889 27.1701 189.354 26.9595C188.627 26.6732 188.109 26.1847 187.959 25.4183C187.834 24.7613 187.817 24.0791 187.783 23.4053C187.733 22.4452 187.783 21.4767 187.65 20.5334C187.508 19.5143 186.781 19.3206 186.012 20.0365C185.728 20.2975 185.452 20.5755 185.193 20.8618C184.792 21.2998 184.391 21.7377 184.04 22.2094C183.873 22.4452 183.831 22.7737 183.714 23.0516C183.355 23.877 183.355 24.8455 182.728 25.5614C182.644 25.6541 182.544 25.7383 182.461 25.8225C182.093 25.7299 182.001 25.5362 182.043 25.1824C182.143 24.4329 182.21 23.6833 182.277 22.9337C182.294 22.7653 182.26 22.5884 182.252 22.3441C182.051 22.4368 181.909 22.4789 181.792 22.5631C181.174 22.9842 180.589 23.4727 179.946 23.8433C178.784 24.5171 177.564 24.9298 176.185 24.5171C175.726 24.3823 175.191 24.4076 174.848 24.0117C174.623 23.7422 174.464 23.4053 174.297 23.0853C174.197 22.8916 174.146 22.6642 174.046 22.3694C173.553 22.8832 173.152 23.3464 172.701 23.7591C171.94 24.4665 171.105 25.0814 170.069 25.3256C169.484 25.4604 168.932 25.4688 168.364 25.0982C167.445 24.5002 167.42 24.5423 166.91 23.818C166.317 24.1212 165.732 24.4413 165.139 24.7276C164.37 25.0982 163.568 25.0561 162.807 24.7782C162.423 24.6434 162.106 24.2813 161.704 23.9781C161.337 24.2223 160.927 24.5255 160.484 24.7697C159.549 25.2835 158.538 25.4098 157.493 25.1824C156.875 25.0477 156.532 24.6013 156.357 24.0202C156.248 23.6496 156.156 23.279 156.039 22.8411C155.003 22.9505 154 23.0516 152.989 23.1527C152.989 23.3211 152.972 23.4138 153.006 23.4727C153.566 24.3318 153.8 25.3172 154.126 26.2605C154.543 27.4901 154.961 28.7113 155.379 29.941C156.014 31.8276 156.307 33.7815 156.524 35.7439C156.758 37.841 156.674 39.9635 156.047 41.9932C155.663 43.2397 155.003 44.3514 153.649 44.8568C152.931 45.1263 152.379 44.9494 151.778 44.562C150.365 43.644 149.906 42.2375 149.655 40.6793C149.246 38.0937 149.145 35.5165 149.505 32.914C149.597 32.2487 149.521 31.5665 149.58 30.8927C149.73 29.242 149.914 27.5912 150.081 25.932C150.14 25.3593 150.182 24.7866 150.215 24.2223C150.223 24.0286 150.157 23.8265 150.115 23.5401C149.831 23.7085 149.605 23.8265 149.396 23.9696C148.694 24.475 147.942 24.7276 147.073 24.6434C146.789 24.6181 146.497 24.6855 146.229 24.6266C146.062 24.5929 145.878 24.4076 145.82 24.2476C145.786 24.1465 145.928 23.9107 146.054 23.8349C146.238 23.717 146.505 23.5906 146.689 23.6412C148.034 23.9781 148.962 23.2285 149.889 22.4621C150.324 22.0999 150.641 21.7209 150.683 21.0555C150.758 19.9017 151.042 18.7563 151.201 17.6108C151.351 16.5581 151.435 15.5053 151.569 14.4525C151.627 14.0146 151.727 13.585 151.811 13.1555C151.97 12.2375 152.112 11.3194 152.287 10.4014C152.513 9.23073 152.739 8.06004 152.998 6.89777C153.257 5.71023 153.507 4.51428 153.85 3.34358C154.025 2.72876 154.326 2.13078 154.669 1.59176C154.961 1.12012 155.412 0.774804 156.039 0.909559C156.624 1.02747 156.95 1.44016 157.15 1.98761C157.61 3.2341 157.694 4.53954 157.593 5.83657C157.409 8.19479 156.942 10.5025 156.265 12.7849C155.813 14.3093 155.237 15.7748 154.619 17.215C154.017 18.6047 153.44 20.028 152.479 21.2408C152.179 21.6198 152.271 21.8641 152.739 21.9315C153.24 21.9904 153.758 21.9988 154.268 21.9904C154.777 21.982 155.295 21.923 155.805 21.8893C156.298 21.8641 156.683 21.7125 156.9 21.1987C157.426 19.9775 158.237 18.9247 159.014 17.8551C159.766 16.8192 161.203 16.3391 162.373 16.7686C163.142 17.055 163.568 17.7203 163.442 18.5289C163.392 18.8489 163.317 19.11 163.593 19.3879C163.844 19.6406 163.735 19.9438 163.626 20.2639C163.342 21.064 163.041 21.8725 162.849 22.7063C162.657 23.5317 163.1 24.0202 163.977 24.0286C164.796 24.037 165.456 23.6327 166.066 23.1443C166.584 22.7316 166.81 22.1589 167.027 21.5272C167.428 20.2975 167.98 19.1269 168.473 17.9225C168.59 17.6361 168.69 17.3413 168.815 17.055C168.932 16.7939 169.141 16.6423 169.442 16.7349C169.768 16.8444 169.877 17.0971 169.785 17.4171C169.718 17.6698 169.609 17.9056 169.526 18.1499C169.133 19.2195 168.707 20.2723 168.356 21.3587C168.189 21.8725 168.113 22.4284 168.097 22.9674C168.072 23.8433 168.665 24.4329 169.551 24.4244C169.902 24.4244 170.278 24.3318 170.587 24.1718C171.782 23.5485 172.667 22.58 173.436 21.4851C173.662 21.165 173.904 20.8618 174.08 20.5165C174.33 20.0112 174.556 19.489 174.74 18.9584C175.107 17.8804 175.425 16.7855 175.776 15.7074C175.901 15.32 176.077 14.9494 176.252 14.5367H176.235ZM151.343 22.7821C151.176 23.9696 150.984 25.0393 150.875 26.1173C150.683 27.9449 150.516 29.781 150.399 31.617C150.274 33.6299 150.048 35.6428 150.223 37.6642C150.349 39.0791 150.357 40.4941 150.85 41.8753C151.109 42.5996 151.502 43.1471 152.07 43.6103C152.53 43.9893 153.039 44.0567 153.591 43.8798C154.477 43.6019 154.886 42.8017 155.153 42.069C155.688 40.553 155.93 38.9528 155.78 37.3273C155.646 35.9292 155.538 34.5311 155.312 33.1499C155.103 31.8781 154.811 30.6064 154.435 29.3683C154.009 27.9786 153.474 26.6311 152.947 25.2751C152.605 24.3823 152.154 23.5485 151.343 22.7821ZM151.769 20.3733C151.836 20.3818 151.903 20.3902 151.978 20.3986C152.63 19.4974 153.115 18.4952 153.532 17.4677C154.067 16.1454 154.677 14.8568 155.17 13.5261C155.847 11.6984 156.164 9.76975 156.507 7.84948C156.566 7.52101 156.674 7.19254 156.691 6.86408C156.741 5.9629 156.741 5.0533 156.799 4.15212C156.85 3.27621 156.532 2.53505 156.106 1.77705C155.546 1.85285 155.279 2.24027 155.103 2.66138C154.869 3.2341 154.652 3.81523 154.502 4.42163C154.167 5.77761 153.908 7.15043 153.582 8.51484C153.098 10.5362 152.789 12.5828 152.446 14.6294C152.22 15.9601 152.062 17.2992 151.903 18.6384C151.836 19.2195 151.819 19.8006 151.786 20.3818L151.769 20.3733ZM157.76 21.443C158.019 21.443 158.17 21.443 158.312 21.4261C159.114 21.3251 159.824 20.9629 160.535 20.5839C161.379 20.1291 162.014 19.4722 162.44 18.6131C162.707 18.0741 162.582 17.8551 162.072 17.5519C161.42 17.1645 160.418 17.6866 159.925 18.2004C159.323 18.8321 158.797 19.5395 158.287 20.2554C158.061 20.5755 157.961 20.9882 157.769 21.443H157.76ZM162.014 20.8029C161.863 20.8534 161.763 20.8703 161.679 20.9208C160.493 21.7209 159.223 22.3189 157.819 22.5968C157.401 22.681 157.217 22.9337 157.217 23.3717C157.217 23.8517 157.309 24.0454 157.769 24.1802C158.521 24.3907 159.248 24.4244 160.008 24.0202C160.852 23.5654 161.312 22.8158 161.805 22.0662C162.039 21.7125 162.147 21.3251 162.014 20.8029ZM184.825 14.3851C184.909 14.402 185.001 14.4272 185.084 14.4441C185.41 13.5261 185.795 12.6249 186.054 11.6816C186.321 10.713 186.48 9.70237 186.672 8.70855C186.705 8.5401 186.622 8.35481 186.597 8.18637C186.53 8.18637 186.463 8.18637 186.405 8.18637C185.277 10.0982 185.093 12.2459 184.834 14.3851H184.825Z"/>
</mask>
<path d="M176.235 14.5367C176.068 14.4272 176.01 14.3599 175.943 14.343C175.032 14.1409 174.472 13.425 173.804 12.8776C173.445 12.5912 173.261 12.1954 173.353 11.7321C173.653 11.5384 173.796 11.7321 173.963 11.9006C174.631 12.5659 175.45 12.9702 176.319 13.2902C176.378 13.3155 176.469 13.2734 176.637 13.2397C176.871 12.448 177.13 11.6142 177.347 10.772C177.723 9.31495 178.057 7.84948 178.433 6.40086C178.466 6.2661 178.726 6.1145 178.884 6.1145C179.143 6.1145 179.386 6.51034 179.336 6.82197C179.219 7.56312 179.11 8.30428 178.934 9.02859C178.642 10.233 178.291 11.4289 177.965 12.6333C177.907 12.8523 177.873 13.0797 177.815 13.366C179.16 13.8377 180.372 13.1892 181.592 13.046C181.926 13.7366 181.801 14.0988 181.14 14.1914C180.171 14.3346 179.193 14.4357 178.224 14.4862C177.372 14.5283 177.338 14.4946 177.063 15.32C176.595 16.7181 176.144 18.133 175.692 19.5395C175.592 19.8596 175.5 20.1881 175.375 20.4997C175.091 21.2071 175.124 21.923 175.258 22.6473C175.341 23.0937 175.584 23.338 176.035 23.5064C177.748 24.1212 179.168 23.4811 180.497 22.4873C181.308 21.8809 181.926 21.0724 182.519 20.2639C182.678 20.0449 182.77 19.7501 182.837 19.4722C183.146 18.0572 183.455 16.6339 183.739 15.2105C184.09 13.425 184.424 11.6395 184.742 9.84555C184.884 9.02859 185.235 8.32112 185.661 7.63892C185.887 7.26834 186.597 7.05779 186.956 7.21781C187.357 7.39468 187.666 8.00108 187.566 8.4643C187.449 9.02017 187.332 9.57604 187.182 10.1319C186.873 11.311 186.622 12.5154 186.204 13.6524C185.552 15.4211 184.775 17.1392 184.065 18.8826C183.848 19.4132 183.664 19.9522 183.488 20.4913C183.43 20.6765 183.455 20.8787 183.438 21.2156C183.664 21.064 183.789 20.9966 183.881 20.9039C184.399 20.3986 184.901 19.8849 185.41 19.3795C185.536 19.2532 185.669 19.1184 185.828 19.0426C187.165 18.3436 188.318 18.6215 188.577 20.3818C188.703 21.224 188.661 22.0915 188.686 22.9505C188.703 23.498 188.652 24.0454 188.719 24.5845C188.861 25.6878 189.647 26.2942 190.733 26.1426C191.97 25.9657 193.089 25.6035 194.084 24.7276C194.936 23.9696 195.538 23.1527 195.805 22.0578C195.872 21.7799 196.014 21.5019 196.348 21.4682C196.766 21.4261 197.134 21.8641 196.933 22.2515C196.407 23.279 195.947 24.3739 194.995 25.1151C194.443 25.5446 193.875 25.9404 193.298 26.3363C192.596 26.8248 191.761 26.8753 190.95 27.0269C190.407 27.128 189.889 27.1701 189.354 26.9595C188.627 26.6732 188.109 26.1847 187.959 25.4183C187.834 24.7613 187.817 24.0791 187.783 23.4053C187.733 22.4452 187.783 21.4767 187.65 20.5334C187.508 19.5143 186.781 19.3206 186.012 20.0365C185.728 20.2975 185.452 20.5755 185.193 20.8618C184.792 21.2998 184.391 21.7377 184.04 22.2094C183.873 22.4452 183.831 22.7737 183.714 23.0516C183.355 23.877 183.355 24.8455 182.728 25.5614C182.644 25.6541 182.544 25.7383 182.461 25.8225C182.093 25.7299 182.001 25.5362 182.043 25.1824C182.143 24.4329 182.21 23.6833 182.277 22.9337C182.294 22.7653 182.26 22.5884 182.252 22.3441C182.051 22.4368 181.909 22.4789 181.792 22.5631C181.174 22.9842 180.589 23.4727 179.946 23.8433C178.784 24.5171 177.564 24.9298 176.185 24.5171C175.726 24.3823 175.191 24.4076 174.848 24.0117C174.623 23.7422 174.464 23.4053 174.297 23.0853C174.197 22.8916 174.146 22.6642 174.046 22.3694C173.553 22.8832 173.152 23.3464 172.701 23.7591C171.94 24.4665 171.105 25.0814 170.069 25.3256C169.484 25.4604 168.932 25.4688 168.364 25.0982C167.445 24.5002 167.42 24.5423 166.91 23.818C166.317 24.1212 165.732 24.4413 165.139 24.7276C164.37 25.0982 163.568 25.0561 162.807 24.7782C162.423 24.6434 162.106 24.2813 161.704 23.9781C161.337 24.2223 160.927 24.5255 160.484 24.7697C159.549 25.2835 158.538 25.4098 157.493 25.1824C156.875 25.0477 156.532 24.6013 156.357 24.0202C156.248 23.6496 156.156 23.279 156.039 22.8411C155.003 22.9505 154 23.0516 152.989 23.1527C152.989 23.3211 152.972 23.4138 153.006 23.4727C153.566 24.3318 153.8 25.3172 154.126 26.2605C154.543 27.4901 154.961 28.7113 155.379 29.941C156.014 31.8276 156.307 33.7815 156.524 35.7439C156.758 37.841 156.674 39.9635 156.047 41.9932C155.663 43.2397 155.003 44.3514 153.649 44.8568C152.931 45.1263 152.379 44.9494 151.778 44.562C150.365 43.644 149.906 42.2375 149.655 40.6793C149.246 38.0937 149.145 35.5165 149.505 32.914C149.597 32.2487 149.521 31.5665 149.58 30.8927C149.73 29.242 149.914 27.5912 150.081 25.932C150.14 25.3593 150.182 24.7866 150.215 24.2223C150.223 24.0286 150.157 23.8265 150.115 23.5401C149.831 23.7085 149.605 23.8265 149.396 23.9696C148.694 24.475 147.942 24.7276 147.073 24.6434C146.789 24.6181 146.497 24.6855 146.229 24.6266C146.062 24.5929 145.878 24.4076 145.82 24.2476C145.786 24.1465 145.928 23.9107 146.054 23.8349C146.238 23.717 146.505 23.5906 146.689 23.6412C148.034 23.9781 148.962 23.2285 149.889 22.4621C150.324 22.0999 150.641 21.7209 150.683 21.0555C150.758 19.9017 151.042 18.7563 151.201 17.6108C151.351 16.5581 151.435 15.5053 151.569 14.4525C151.627 14.0146 151.727 13.585 151.811 13.1555C151.97 12.2375 152.112 11.3194 152.287 10.4014C152.513 9.23073 152.739 8.06004 152.998 6.89777C153.257 5.71023 153.507 4.51428 153.85 3.34358C154.025 2.72876 154.326 2.13078 154.669 1.59176C154.961 1.12012 155.412 0.774804 156.039 0.909559C156.624 1.02747 156.95 1.44016 157.15 1.98761C157.61 3.2341 157.694 4.53954 157.593 5.83657C157.409 8.19479 156.942 10.5025 156.265 12.7849C155.813 14.3093 155.237 15.7748 154.619 17.215C154.017 18.6047 153.44 20.028 152.479 21.2408C152.179 21.6198 152.271 21.8641 152.739 21.9315C153.24 21.9904 153.758 21.9988 154.268 21.9904C154.777 21.982 155.295 21.923 155.805 21.8893C156.298 21.8641 156.683 21.7125 156.9 21.1987C157.426 19.9775 158.237 18.9247 159.014 17.8551C159.766 16.8192 161.203 16.3391 162.373 16.7686C163.142 17.055 163.568 17.7203 163.442 18.5289C163.392 18.8489 163.317 19.11 163.593 19.3879C163.844 19.6406 163.735 19.9438 163.626 20.2639C163.342 21.064 163.041 21.8725 162.849 22.7063C162.657 23.5317 163.1 24.0202 163.977 24.0286C164.796 24.037 165.456 23.6327 166.066 23.1443C166.584 22.7316 166.81 22.1589 167.027 21.5272C167.428 20.2975 167.98 19.1269 168.473 17.9225C168.59 17.6361 168.69 17.3413 168.815 17.055C168.932 16.7939 169.141 16.6423 169.442 16.7349C169.768 16.8444 169.877 17.0971 169.785 17.4171C169.718 17.6698 169.609 17.9056 169.526 18.1499C169.133 19.2195 168.707 20.2723 168.356 21.3587C168.189 21.8725 168.113 22.4284 168.097 22.9674C168.072 23.8433 168.665 24.4329 169.551 24.4244C169.902 24.4244 170.278 24.3318 170.587 24.1718C171.782 23.5485 172.667 22.58 173.436 21.4851C173.662 21.165 173.904 20.8618 174.08 20.5165C174.33 20.0112 174.556 19.489 174.74 18.9584C175.107 17.8804 175.425 16.7855 175.776 15.7074C175.901 15.32 176.077 14.9494 176.252 14.5367H176.235ZM151.343 22.7821C151.176 23.9696 150.984 25.0393 150.875 26.1173C150.683 27.9449 150.516 29.781 150.399 31.617C150.274 33.6299 150.048 35.6428 150.223 37.6642C150.349 39.0791 150.357 40.4941 150.85 41.8753C151.109 42.5996 151.502 43.1471 152.07 43.6103C152.53 43.9893 153.039 44.0567 153.591 43.8798C154.477 43.6019 154.886 42.8017 155.153 42.069C155.688 40.553 155.93 38.9528 155.78 37.3273C155.646 35.9292 155.538 34.5311 155.312 33.1499C155.103 31.8781 154.811 30.6064 154.435 29.3683C154.009 27.9786 153.474 26.6311 152.947 25.2751C152.605 24.3823 152.154 23.5485 151.343 22.7821ZM151.769 20.3733C151.836 20.3818 151.903 20.3902 151.978 20.3986C152.63 19.4974 153.115 18.4952 153.532 17.4677C154.067 16.1454 154.677 14.8568 155.17 13.5261C155.847 11.6984 156.164 9.76975 156.507 7.84948C156.566 7.52101 156.674 7.19254 156.691 6.86408C156.741 5.9629 156.741 5.0533 156.799 4.15212C156.85 3.27621 156.532 2.53505 156.106 1.77705C155.546 1.85285 155.279 2.24027 155.103 2.66138C154.869 3.2341 154.652 3.81523 154.502 4.42163C154.167 5.77761 153.908 7.15043 153.582 8.51484C153.098 10.5362 152.789 12.5828 152.446 14.6294C152.22 15.9601 152.062 17.2992 151.903 18.6384C151.836 19.2195 151.819 19.8006 151.786 20.3818L151.769 20.3733ZM157.76 21.443C158.019 21.443 158.17 21.443 158.312 21.4261C159.114 21.3251 159.824 20.9629 160.535 20.5839C161.379 20.1291 162.014 19.4722 162.44 18.6131C162.707 18.0741 162.582 17.8551 162.072 17.5519C161.42 17.1645 160.418 17.6866 159.925 18.2004C159.323 18.8321 158.797 19.5395 158.287 20.2554C158.061 20.5755 157.961 20.9882 157.769 21.443H157.76ZM162.014 20.8029C161.863 20.8534 161.763 20.8703 161.679 20.9208C160.493 21.7209 159.223 22.3189 157.819 22.5968C157.401 22.681 157.217 22.9337 157.217 23.3717C157.217 23.8517 157.309 24.0454 157.769 24.1802C158.521 24.3907 159.248 24.4244 160.008 24.0202C160.852 23.5654 161.312 22.8158 161.805 22.0662C162.039 21.7125 162.147 21.3251 162.014 20.8029ZM184.825 14.3851C184.909 14.402 185.001 14.4272 185.084 14.4441C185.41 13.5261 185.795 12.6249 186.054 11.6816C186.321 10.713 186.48 9.70237 186.672 8.70855C186.705 8.5401 186.622 8.35481 186.597 8.18637C186.53 8.18637 186.463 8.18637 186.405 8.18637C185.277 10.0982 185.093 12.2459 184.834 14.3851H184.825Z" fill="white" stroke="white" stroke-width="40" mask="url(#path-2-inside-2_17_3666)"/>
<mask id="path-3-inside-3_17_3666" fill="white">
<path d="M115.421 18.7732C116.323 18.31 117.201 18.3521 118.011 18.5963C119.298 18.9922 120.301 19.7502 120.635 21.182C120.827 21.9989 120.66 22.7738 120.535 23.557C120.51 23.7423 120.342 23.9108 120.209 24.0624C119.975 24.3319 119.716 24.5761 119.465 24.8204C119.524 24.8877 119.565 24.9551 119.59 24.9467C120.969 24.7867 122.248 24.3993 123.317 23.4644C123.551 23.2623 123.677 23.0433 123.635 22.7232C123.518 21.8221 123.819 20.9798 124.053 20.1292C124.17 19.7081 124.286 19.2785 124.437 18.8658C124.646 18.3016 124.98 17.8131 125.548 17.5436C126.183 17.2404 126.768 17.5688 126.927 18.2679C127.086 18.9416 126.894 19.5565 126.651 20.1544C126.434 20.6766 126.116 21.1567 125.849 21.662C125.523 22.2768 125.206 22.8917 124.896 23.4897C125.983 24.4161 127.328 24.4245 128.331 23.6076C129.526 22.6306 130.403 21.4599 130.737 19.9102C130.762 19.7839 130.804 19.6575 130.854 19.5396C130.971 19.2701 131.163 19.1185 131.464 19.1775C131.79 19.2448 131.899 19.4638 131.924 19.7923C131.982 20.5671 132.091 21.3336 132.183 22.1C132.266 22.799 132.342 23.4981 132.417 24.1887C132.525 25.0815 132.634 25.9826 132.759 27.0691C133.085 26.808 133.311 26.6817 133.445 26.4964C134.882 24.5593 136.277 22.5969 136.971 20.2302C137.146 19.6323 137.263 19.0174 137.405 18.411C137.464 18.1836 137.489 17.9394 137.606 17.7457C137.698 17.6025 137.898 17.4678 138.074 17.4341C138.341 17.392 138.433 17.6446 138.425 17.8468C138.391 18.411 138.366 18.9922 138.241 19.5396C137.965 20.7861 137.547 21.9989 136.871 23.0854C136.093 24.3319 135.492 25.6879 134.439 26.7575C133.879 27.3218 133.461 28.0292 132.993 28.6862C132.927 28.7788 132.885 28.9136 132.876 29.0399C132.851 29.6126 132.835 30.1769 132.826 30.7496C132.776 32.7457 132.826 34.7586 132.642 36.7463C132.551 37.7232 132.108 38.7002 131.665 39.593C131.347 40.2499 130.796 40.8058 130.311 41.3701C130.136 41.5806 129.877 41.7491 129.618 41.8501C127.412 42.6923 125.69 42.347 124.044 40.4941C123.585 39.972 123.359 39.3066 123.317 38.5655C123.175 35.7103 124.337 33.5542 126.668 32.0045C127.913 31.1792 129.191 30.3959 130.428 29.5621C130.829 29.2926 131.163 28.9136 131.539 28.6019C131.807 28.3745 131.874 28.1135 131.84 27.7766C131.665 26.1258 131.506 24.4666 131.322 22.8159C131.297 22.5969 131.172 22.3948 131.088 22.1589C130.963 22.2263 130.863 22.2432 130.838 22.3021C130.278 23.3802 129.258 23.9781 128.364 24.7109C127.846 25.132 127.286 25.1741 126.693 25.1488C125.933 25.1236 125.206 24.9467 124.554 24.5677C123.969 24.2224 123.476 24.3235 123.008 24.7614C122.498 25.2331 121.922 25.4941 121.22 25.5868C120.376 25.6963 119.549 25.9068 118.73 26.1258C117.702 26.3953 116.733 26.1679 115.788 25.7973C115.555 25.7047 115.321 25.5447 115.179 25.3425C115.07 25.1909 115.028 24.9046 115.087 24.7193C115.162 24.4498 115.421 24.4329 115.663 24.534C115.83 24.6014 115.997 24.6856 116.165 24.7446C116.833 24.9804 117.476 24.9635 118.078 24.5087C118.404 24.2645 118.78 24.0708 119.106 23.8265C119.632 23.4223 119.941 22.9001 119.849 22.2095C119.607 20.3987 118.889 19.5986 117.1 19.2533C116.515 19.1354 115.889 19.4554 115.613 20.1292C115.329 20.8114 115.137 21.5525 114.995 22.2853C114.819 23.1443 114.752 24.0287 114.619 24.8962C114.585 25.1236 114.51 25.351 114.418 25.5615C114.284 25.8816 114.009 25.9489 113.708 25.8563C113.432 25.7721 113.39 25.5363 113.432 25.2836C113.624 24.1045 113.833 22.9254 114.025 21.7463C114.126 21.1314 114.218 20.5166 114.293 19.8934C114.577 17.7036 114.853 15.5138 115.153 13.1893C114.861 13.3661 114.635 13.5009 114.41 13.6356C113.641 14.1241 112.856 14.5621 111.961 14.7642C111.736 14.8148 111.51 14.8484 111.276 14.8737C111.042 14.899 110.817 14.8147 110.825 14.5705C110.825 14.4189 110.992 14.2252 111.134 14.1326C111.276 14.0315 111.477 14.0315 111.652 13.9809C112.722 13.7199 113.666 13.2145 114.468 12.4565C114.502 12.4228 114.552 12.3891 114.594 12.3639C115.605 11.8922 115.972 11.05 116.181 9.98039C116.415 8.80127 116.841 7.64743 117.217 6.502C117.435 5.85349 117.794 5.2892 118.387 4.89336C118.738 4.66596 119.097 4.53962 119.473 4.71649C119.849 4.89336 119.958 5.28078 119.908 5.65136C119.799 6.44305 120 7.23474 119.741 8.0517C119.473 8.8855 119.031 9.53401 118.421 10.1151C117.903 10.6205 117.368 11.1174 116.875 11.648C116.666 11.867 116.49 12.1533 116.407 12.4397C115.847 14.36 115.371 16.3055 115.362 18.3268C115.362 18.4279 115.379 18.529 115.396 18.7395L115.421 18.7732ZM131.966 29.8232C131.656 30.0169 131.456 30.118 131.28 30.2527C130.904 30.5222 130.553 30.8254 130.161 31.0697C129.242 31.6424 128.314 32.1814 127.387 32.7373C125.866 33.6384 124.922 35.0028 124.429 36.662C124.128 37.6643 124.011 38.7255 124.596 39.6856C125.406 41.0247 126.71 41.4795 128.164 41.4037C128.999 41.3616 129.76 41.0332 130.336 40.2583C131.397 38.835 131.932 37.26 131.974 35.4998C132.016 33.8911 132.032 32.2825 132.049 30.6654C132.049 30.4212 132.007 30.1769 131.974 29.8148L131.966 29.8232ZM118.863 5.84507C118.128 6.32514 117.176 8.75074 117.176 10.1236C118.78 9.06236 119.415 7.33581 118.863 5.84507ZM124.913 21.2915C125.323 20.3566 126.116 19.6744 125.916 18.5711C125.264 18.9416 124.738 20.3229 124.913 21.2915Z"/>
</mask>
<path d="M115.421 18.7732C116.323 18.31 117.201 18.3521 118.011 18.5963C119.298 18.9922 120.301 19.7502 120.635 21.182C120.827 21.9989 120.66 22.7738 120.535 23.557C120.51 23.7423 120.342 23.9108 120.209 24.0624C119.975 24.3319 119.716 24.5761 119.465 24.8204C119.524 24.8877 119.565 24.9551 119.59 24.9467C120.969 24.7867 122.248 24.3993 123.317 23.4644C123.551 23.2623 123.677 23.0433 123.635 22.7232C123.518 21.8221 123.819 20.9798 124.053 20.1292C124.17 19.7081 124.286 19.2785 124.437 18.8658C124.646 18.3016 124.98 17.8131 125.548 17.5436C126.183 17.2404 126.768 17.5688 126.927 18.2679C127.086 18.9416 126.894 19.5565 126.651 20.1544C126.434 20.6766 126.116 21.1567 125.849 21.662C125.523 22.2768 125.206 22.8917 124.896 23.4897C125.983 24.4161 127.328 24.4245 128.331 23.6076C129.526 22.6306 130.403 21.4599 130.737 19.9102C130.762 19.7839 130.804 19.6575 130.854 19.5396C130.971 19.2701 131.163 19.1185 131.464 19.1775C131.79 19.2448 131.899 19.4638 131.924 19.7923C131.982 20.5671 132.091 21.3336 132.183 22.1C132.266 22.799 132.342 23.4981 132.417 24.1887C132.525 25.0815 132.634 25.9826 132.759 27.0691C133.085 26.808 133.311 26.6817 133.445 26.4964C134.882 24.5593 136.277 22.5969 136.971 20.2302C137.146 19.6323 137.263 19.0174 137.405 18.411C137.464 18.1836 137.489 17.9394 137.606 17.7457C137.698 17.6025 137.898 17.4678 138.074 17.4341C138.341 17.392 138.433 17.6446 138.425 17.8468C138.391 18.411 138.366 18.9922 138.241 19.5396C137.965 20.7861 137.547 21.9989 136.871 23.0854C136.093 24.3319 135.492 25.6879 134.439 26.7575C133.879 27.3218 133.461 28.0292 132.993 28.6862C132.927 28.7788 132.885 28.9136 132.876 29.0399C132.851 29.6126 132.835 30.1769 132.826 30.7496C132.776 32.7457 132.826 34.7586 132.642 36.7463C132.551 37.7232 132.108 38.7002 131.665 39.593C131.347 40.2499 130.796 40.8058 130.311 41.3701C130.136 41.5806 129.877 41.7491 129.618 41.8501C127.412 42.6923 125.69 42.347 124.044 40.4941C123.585 39.972 123.359 39.3066 123.317 38.5655C123.175 35.7103 124.337 33.5542 126.668 32.0045C127.913 31.1792 129.191 30.3959 130.428 29.5621C130.829 29.2926 131.163 28.9136 131.539 28.6019C131.807 28.3745 131.874 28.1135 131.84 27.7766C131.665 26.1258 131.506 24.4666 131.322 22.8159C131.297 22.5969 131.172 22.3948 131.088 22.1589C130.963 22.2263 130.863 22.2432 130.838 22.3021C130.278 23.3802 129.258 23.9781 128.364 24.7109C127.846 25.132 127.286 25.1741 126.693 25.1488C125.933 25.1236 125.206 24.9467 124.554 24.5677C123.969 24.2224 123.476 24.3235 123.008 24.7614C122.498 25.2331 121.922 25.4941 121.22 25.5868C120.376 25.6963 119.549 25.9068 118.73 26.1258C117.702 26.3953 116.733 26.1679 115.788 25.7973C115.555 25.7047 115.321 25.5447 115.179 25.3425C115.07 25.1909 115.028 24.9046 115.087 24.7193C115.162 24.4498 115.421 24.4329 115.663 24.534C115.83 24.6014 115.997 24.6856 116.165 24.7446C116.833 24.9804 117.476 24.9635 118.078 24.5087C118.404 24.2645 118.78 24.0708 119.106 23.8265C119.632 23.4223 119.941 22.9001 119.849 22.2095C119.607 20.3987 118.889 19.5986 117.1 19.2533C116.515 19.1354 115.889 19.4554 115.613 20.1292C115.329 20.8114 115.137 21.5525 114.995 22.2853C114.819 23.1443 114.752 24.0287 114.619 24.8962C114.585 25.1236 114.51 25.351 114.418 25.5615C114.284 25.8816 114.009 25.9489 113.708 25.8563C113.432 25.7721 113.39 25.5363 113.432 25.2836C113.624 24.1045 113.833 22.9254 114.025 21.7463C114.126 21.1314 114.218 20.5166 114.293 19.8934C114.577 17.7036 114.853 15.5138 115.153 13.1893C114.861 13.3661 114.635 13.5009 114.41 13.6356C113.641 14.1241 112.856 14.5621 111.961 14.7642C111.736 14.8148 111.51 14.8484 111.276 14.8737C111.042 14.899 110.817 14.8147 110.825 14.5705C110.825 14.4189 110.992 14.2252 111.134 14.1326C111.276 14.0315 111.477 14.0315 111.652 13.9809C112.722 13.7199 113.666 13.2145 114.468 12.4565C114.502 12.4228 114.552 12.3891 114.594 12.3639C115.605 11.8922 115.972 11.05 116.181 9.98039C116.415 8.80127 116.841 7.64743 117.217 6.502C117.435 5.85349 117.794 5.2892 118.387 4.89336C118.738 4.66596 119.097 4.53962 119.473 4.71649C119.849 4.89336 119.958 5.28078 119.908 5.65136C119.799 6.44305 120 7.23474 119.741 8.0517C119.473 8.8855 119.031 9.53401 118.421 10.1151C117.903 10.6205 117.368 11.1174 116.875 11.648C116.666 11.867 116.49 12.1533 116.407 12.4397C115.847 14.36 115.371 16.3055 115.362 18.3268C115.362 18.4279 115.379 18.529 115.396 18.7395L115.421 18.7732ZM131.966 29.8232C131.656 30.0169 131.456 30.118 131.28 30.2527C130.904 30.5222 130.553 30.8254 130.161 31.0697C129.242 31.6424 128.314 32.1814 127.387 32.7373C125.866 33.6384 124.922 35.0028 124.429 36.662C124.128 37.6643 124.011 38.7255 124.596 39.6856C125.406 41.0247 126.71 41.4795 128.164 41.4037C128.999 41.3616 129.76 41.0332 130.336 40.2583C131.397 38.835 131.932 37.26 131.974 35.4998C132.016 33.8911 132.032 32.2825 132.049 30.6654C132.049 30.4212 132.007 30.1769 131.974 29.8148L131.966 29.8232ZM118.863 5.84507C118.128 6.32514 117.176 8.75074 117.176 10.1236C118.78 9.06236 119.415 7.33581 118.863 5.84507ZM124.913 21.2915C125.323 20.3566 126.116 19.6744 125.916 18.5711C125.264 18.9416 124.738 20.3229 124.913 21.2915Z" fill="white" stroke="white" stroke-width="40" mask="url(#path-3-inside-3_17_3666)"/>
<mask id="path-4-inside-4_17_3666" fill="white">
<path d="M169.893 12.8524C170.194 12.8018 170.603 13.1892 170.679 13.5851C170.746 13.9136 170.445 14.3094 170.102 14.3599C169.651 14.4189 169.325 14.1578 169.233 13.6777C169.166 13.3493 169.517 12.9197 169.893 12.8608V12.8524Z"/>
</mask>
<path d="M169.893 12.8524C170.194 12.8018 170.603 13.1892 170.679 13.5851C170.746 13.9136 170.445 14.3094 170.102 14.3599C169.651 14.4189 169.325 14.1578 169.233 13.6777C169.166 13.3493 169.517 12.9197 169.893 12.8608V12.8524Z" fill="white" stroke="white" stroke-width="40" mask="url(#path-4-inside-4_17_3666)"/>
</g>
<defs>
<clipPath id="clip0_17_3666">
<rect width="197" height="45" fill="white"/>
</clipPath>
</defs>
</svg>
