<svg width="512" height="116" viewBox="0 0 512 116" fill="none" xmlns="http://www.w3.org/2000/svg">
<g clip-path="url(#clip0_10_203)">
<mask id="path-1-inside-1_10_203" fill="white">
<path d="M47.3213 71.9274C47.2778 70.3642 47.2778 69.1701 47.2127 67.976C46.9303 64.0681 48.2334 60.5944 50.0142 57.2292C50.4485 56.4042 50.9914 55.6227 51.4258 54.7977C52.6419 52.4529 54.6616 50.868 56.6596 49.3266C57.9626 48.3062 59.6131 48.0456 61.2419 48.0891C62.9575 48.1325 63.8045 48.7187 65.2812 50.8029C66.2368 50.1299 67.3226 50.0213 68.4085 50.5207C71.4054 51.9318 74.0549 50.8246 76.5741 49.2831C78.3331 48.1976 79.9185 46.8516 81.6558 45.7226C82.3508 45.2667 83.2195 44.8976 84.0447 44.7673C85.5649 44.5285 87.3674 45.1581 87.628 47.3943C87.7583 48.5667 87.9755 49.7391 88.1926 51.2805C89.3654 50.0213 90.3426 48.9575 91.3199 47.8937C92.7749 46.3522 94.5123 45.4404 96.684 45.614C98.7037 45.766 99.2249 46.3305 99.4421 48.3496C99.5289 49.218 99.5072 50.0864 99.5289 51.1937C100.05 50.9332 100.398 50.8246 100.658 50.6075C101.549 49.891 102.417 49.1746 103.264 48.393C104.698 47.047 106.435 46.7647 108.303 46.8298C108.563 46.8298 108.846 46.895 109.084 47.0035C110.387 47.5897 112.255 50.6943 112.038 52.149C111.69 54.4503 111.517 56.7516 110.691 59.0095C109.845 61.376 109.497 63.9595 109.215 66.478C108.932 68.9964 110.214 70.0819 112.776 69.6694C114.557 69.3872 116.316 68.9313 117.815 67.824C118.575 67.2813 119.422 66.8905 120.312 66.3911C120.312 66.174 120.312 65.8918 120.29 65.653C119.443 60.7029 120.964 56.3825 123.83 52.4529C124.96 50.9114 126.176 49.37 127.587 48.0891C128.478 47.2641 129.737 46.6996 130.91 46.3739C134.602 45.3969 136.947 48.0891 136.209 51.8233C135.471 55.5141 133.429 58.2931 130.932 60.8549C129.107 62.7003 127.131 64.3938 125.242 66.174C124.808 66.5648 124.46 67.0425 124.113 67.4333C124.721 68.9096 125.741 69.4523 127.088 69.6694C130.172 70.1688 133.234 70.5813 136.057 68.7576C136.947 68.1714 137.838 67.5418 138.576 66.7819C140.813 64.5674 142.724 62.1358 144.201 59.2918C146.047 55.7529 148.11 52.3226 150.216 48.9141C150.868 47.8502 151.845 46.9384 152.844 46.1568C154.994 44.4634 156.992 45.2884 157.492 47.9805C157.557 48.3713 157.687 48.7404 157.883 49.4351C158.664 48.9575 159.403 48.6535 159.946 48.1542C160.923 47.2206 162.117 46.895 163.312 46.4608C165.027 45.8529 166.33 46.4825 167.395 47.7417C168.22 48.697 168.936 49.7174 169.697 50.716C170.913 49.9345 172.02 49.0877 173.236 48.4581C175.864 47.1121 177.732 48.0239 178.514 50.9114C179.274 53.6253 179.143 56.3174 178.622 59.0529C178.253 60.9418 178.014 62.8957 177.992 64.8063C177.949 66.7819 180.164 68.6273 182.054 68.3451C182.466 68.28 182.966 67.8023 183.139 67.3898C183.53 66.4563 183.704 65.4576 183.986 64.5023C185.181 60.5944 187.179 57.1207 190.176 54.3634C192.369 52.3443 194.758 50.4989 197.885 49.9128C200.578 49.4134 202.142 50.4555 202.402 53.2345C202.424 53.5601 202.402 53.9292 202.511 54.2332C203.532 56.6431 202.511 58.7924 201.621 60.9201C200.513 63.5905 199.992 66.2609 200.752 69.105C201.121 70.4945 201.534 70.8635 203.01 70.907C205.399 70.9721 207.68 70.6898 209.547 68.953C210.22 68.3451 210.698 67.7372 210.72 66.7602C210.785 63.1345 211.958 59.726 213.456 56.5345C214.933 53.4082 217.452 50.9549 220.579 49.4351C222.491 48.5016 224.641 48.545 226.378 50.2384C226.573 50.4121 226.791 50.5641 227.008 50.716C227.051 50.7595 227.138 50.7595 227.486 50.8246C227.703 49.9128 227.942 48.9792 228.137 48.0456C228.919 44.3114 229.592 40.5555 230.482 36.8647C231.286 33.5646 232.524 30.3515 233.262 27.0297C234.131 23.1652 235.521 19.4744 236.824 15.7619C237.432 14.0251 238.149 12.3099 239.408 10.8119C240.603 9.37897 242.123 8.66252 243.73 8.0112C244.642 7.64212 245.684 8.46712 245.771 9.61779C245.858 10.9421 245.88 12.3099 245.771 13.6343C245.467 17.6942 244.49 21.6672 243.643 25.6403C243.1 28.2238 242.144 30.612 241.124 33.0219C239.777 36.235 238.843 39.6002 237.475 42.7917C235.781 46.6996 234.087 50.6509 231.699 54.2115C230.917 55.3838 230.591 56.6213 230.656 58.0108C230.743 60.2904 230.96 62.5049 232.415 64.4806C233.306 65.6747 234.24 66.5214 235.716 66.8254C238.518 67.4115 240.82 67.1076 243.339 65.1536C243.6 63.547 243.665 61.8319 244.186 60.2904C244.837 58.3365 245.728 56.426 246.814 54.6674C247.747 53.1694 249.029 51.8233 250.31 50.5858C251.048 49.8693 252.047 49.3483 253.025 48.9792C254.219 48.5016 255.435 48.6535 256.282 49.7825C257.108 50.8463 257.498 51.9536 256.803 53.2996C256.369 54.1246 256.217 55.0799 255.804 55.9266C255.218 57.099 254.523 58.2496 253.828 59.3569C252.33 61.7234 249.963 63.1997 247.878 64.9582C246.618 66.0221 246.401 66.7602 247.139 68.0629C247.4 68.5188 247.986 69.0181 248.464 69.0833C252.482 69.5175 256.347 69.778 259.931 66.999C262.863 64.7194 265.143 62.0273 267.076 58.9661C268.096 57.3378 268.248 57.3595 269.66 58.901C268.227 62.8523 265.599 65.8484 262.102 68.1931C261.668 68.4971 261.147 68.7793 260.843 69.1918C259.431 71.1241 257.368 71.6451 255.218 71.8188C253.22 71.9708 251.2 72.0793 249.203 71.9491C247.509 71.8405 245.967 71.1241 244.968 69.6043C244.642 69.105 244.294 68.6273 243.99 68.1714C235.434 71.2977 231.091 69.7129 228.137 61.3543C227.355 61.5062 226.856 62.049 226.617 62.722C226.009 64.372 224.793 65.4793 223.511 66.5648C222.447 67.4767 221.492 68.4971 220.427 69.4089C219.776 69.9734 219.059 70.4945 218.321 70.9504C216.627 72.0576 214.781 72.3833 213.065 71.1675C211.849 70.2991 210.981 70.7767 210.003 71.4497C208.049 72.8392 205.877 73.5991 203.467 73.6859C200.882 73.7728 199.471 72.9695 198.385 70.603C198.102 69.9951 197.885 69.3655 197.516 68.4754C197.017 68.9747 196.582 69.3004 196.256 69.7346C194.563 71.9491 192.608 73.8162 190.111 75.1188C189.198 75.5747 188.286 75.7919 187.418 75.4445C185.745 74.7932 183.965 74.1636 183.335 72.1662C183.096 71.4063 182.553 71.1458 181.836 71.0589C181.445 71.0155 181.033 70.907 180.664 70.8201C176.668 69.8214 174.887 67.2161 175.43 63.1345C175.799 60.2904 176.212 57.4464 176.537 54.5805C176.624 53.799 176.494 52.9522 176.277 52.1924C175.908 50.7595 175.234 50.4121 173.91 50.9766C173.258 51.2588 172.628 51.7147 172.172 52.2575C169.892 54.8411 168.719 57.924 168.111 61.2674C167.981 61.9622 167.655 62.6569 167.243 63.2431C167.025 63.5253 166.374 63.7424 166.026 63.6339C165.679 63.5253 165.266 63.0043 165.245 62.6352C165.201 61.7885 165.288 60.8983 165.462 60.0733C165.94 57.6417 166.548 55.2536 167.004 52.822C167.286 51.3239 166.374 49.8042 164.897 49.0878C163.724 48.5233 162.617 48.7404 161.466 49.9345C160.727 50.6943 160.119 51.5845 159.446 52.4312C158.99 53.0174 158.599 53.647 158.078 54.168C156.949 55.297 156.015 56.3391 155.819 58.1628C155.428 61.7451 154.582 65.2622 153.973 68.8227C153.648 70.7333 153.496 72.6655 153.148 74.5543C152.931 75.7267 151.867 75.705 150.911 75.8787C149.826 74.5109 150.542 73.1432 150.781 71.8188C151.129 69.7997 151.541 67.7806 151.932 65.7615C152.193 64.372 152.453 63.0043 152.736 61.6148C153.517 57.8806 153.561 54.0161 154.886 50.3904C155.103 49.7825 154.886 49.0226 154.842 47.8068C154.017 48.5884 153.452 48.9792 153.126 49.4785C151.606 51.8233 150.064 54.168 148.653 56.5996C147.198 59.0746 145.938 61.6365 144.461 64.1115C143.897 65.0668 143.093 65.9786 142.225 66.6517C139.988 68.3885 138.337 70.8852 135.492 71.8622C134.016 72.3616 132.582 72.8392 130.997 72.5787C130.476 72.4918 129.911 72.4484 129.39 72.5135C126.48 72.8826 124.091 71.7537 122.115 69.8214C121.202 68.953 120.573 69.0615 119.682 69.5826C117.424 70.9287 115.122 72.0359 112.451 72.3833C110.518 72.6221 109.019 71.9925 107.716 70.755C107.325 70.3859 107.021 69.7346 106.978 69.1918C106.782 66.8688 106.565 64.5892 107.304 62.2444C108.237 59.1832 108.694 55.9917 109.454 52.8654C109.801 51.4325 109.084 50.5207 108.151 49.7391C107.304 49.0226 106.348 49.37 105.523 49.8693C103.916 50.8246 102.591 51.9753 101.549 53.6687C99.6809 56.6865 98.8557 60.0733 97.6613 63.3082C97.0315 65.0234 96.5971 65.4576 95.7936 65.2188C95.0552 65.0017 94.7729 64.1767 95.0118 62.5484C95.4461 59.5089 95.9239 56.4477 96.4017 53.4082C96.836 50.7378 96.8577 49.9779 96.3582 48.4364C95.3375 48.0673 94.5992 48.6752 93.8391 49.2397C91.0159 51.3674 89.474 54.4069 87.9972 57.5115C85.8038 62.0707 84.2836 66.8254 83.3715 71.8188C83.2629 72.4701 83.0457 73.1649 82.6548 73.6859C82.3942 74.055 81.7427 74.3807 81.3735 74.3155C80.9609 74.2287 80.4614 73.6859 80.3745 73.2734C80.2225 72.6438 80.3094 71.9274 80.4397 71.276C81.5255 66.5214 82.6765 61.7668 83.7624 56.9904C84.2619 54.7759 84.6962 52.5615 85.022 50.3035C85.1523 49.4134 84.8917 48.4799 84.7831 47.4595C82.8937 47.4377 81.6993 48.5667 80.5917 49.4568C77.6382 51.7799 74.4892 53.5384 70.7322 54.0595C70.6019 54.0595 70.4933 54.168 70.3196 54.2766C70.4499 56.4911 70.515 58.749 70.7756 60.9852C70.9928 62.7872 70.4281 64.4155 69.9286 66.0655C69.6246 67.0642 69.3206 68.0846 68.8211 69.0181C66.91 72.6438 63.5873 74.7497 59.9823 76.1609C57.3545 77.203 54.4227 77.8326 51.5561 76.5517C51.0783 76.3346 50.4919 76.1609 50.1879 75.7918C49.1455 74.5326 47.8425 74.4241 46.3657 74.5543C44.3677 74.728 42.3915 74.5543 40.3935 74.0767C35.8112 73.0346 32.8143 68.6708 32.4234 64.1767C32.1411 60.9635 32.6623 57.9023 33.1835 54.7977C33.4224 53.343 33.6178 51.8667 33.6613 50.4121C33.7047 49.0443 32.8794 48.5016 31.5547 48.8272C30.0997 49.1963 28.8184 49.9562 27.7977 50.9983C26.4512 52.3661 25.1699 53.8424 24.0406 55.4056C22.6725 57.2944 21.2826 59.2266 20.2401 61.3108C19.176 63.4602 18.3725 65.7615 17.7861 68.0846C16.9174 71.4497 16.3094 74.88 15.5927 78.2669C15.4624 78.8313 15.2887 79.3741 15.1367 79.9169C13.2038 79.5695 12.8781 79.2873 13.0953 77.7675C13.6816 73.5122 14.3548 69.2787 15.0064 65.0451C15.419 62.3964 15.7882 59.7477 16.2442 57.099C16.8523 53.3865 17.569 49.6957 18.1553 46.0048C18.4811 44.0292 18.6331 42.0101 18.8503 40.0127C18.8937 39.5568 18.8503 39.1009 18.8068 38.2107C17.2215 39.318 15.8533 40.1647 14.5937 41.1851C13.0735 42.4009 11.7271 43.8121 10.2069 44.9844C9.09933 45.8312 7.81802 46.4825 6.55844 47.0904C4.99481 47.8502 3.36604 48.4799 1.75898 49.1529C1.17262 49.4134 0.607979 49.5654 0.173639 48.8706C-0.325852 48.0891 0.173639 47.5463 0.694847 47.1555C1.21606 46.7647 1.86757 46.5042 2.47564 46.2437C6.2544 44.6371 9.68569 42.5311 12.6609 39.6219C14.5937 37.7114 16.8523 36.1048 18.9588 34.3679C19.871 33.6081 20.2836 32.6745 20.479 31.4587C21.478 25.2495 22.4336 19.0185 24.1926 12.9612C25.2351 9.35726 26.2558 5.775 28.536 2.69209C29.9259 0.803265 31.6416 -0.217136 34.0304 0.151945C34.2259 0.173656 34.4431 0.173656 34.6385 0.173656C37.3531 0.260498 37.9829 0.890107 38.3738 3.53881C38.9168 7.14277 37.9178 10.4211 36.5062 13.656C36.0936 14.6329 35.6809 15.6316 35.3118 16.6303C34.139 19.9738 31.8805 22.6659 29.8608 25.4666C27.7542 28.3758 25.3871 31.1113 23.2371 33.9989C22.6073 34.8239 22.0861 35.8443 21.8689 36.8429C21.3694 39.318 21.0871 41.8581 20.6962 44.3548C20.3053 46.8516 19.871 49.37 19.5018 51.8667C19.1977 53.9075 18.9371 55.9266 18.9371 58.076C19.6321 57.1858 20.327 56.3174 21.022 55.4273C22.5204 53.4733 23.8669 51.3457 25.5608 49.5654C27.7325 47.2423 30.4471 45.8746 33.8133 46.2219C34.9208 46.3522 35.7678 46.8516 35.985 47.9805C36.1804 48.9575 36.3759 49.9779 36.289 50.9549C36.0936 52.9522 35.7244 54.9496 35.3335 56.9036C34.7688 59.7694 34.8123 62.6569 35.2683 65.501C35.8981 69.4306 38.9385 71.8622 43.2167 72.101C44.4763 72.1662 45.7359 72.0576 47.2995 71.9925L47.3213 71.9274ZM23.3457 28.1587C23.4977 28.2889 23.6497 28.4409 23.8235 28.5712C24.3881 28.0718 24.9745 27.5942 25.5391 27.0949C27.6891 25.1192 28.9487 22.5139 30.5557 20.1475C31.229 19.1488 31.9456 18.1718 32.4668 17.0863C33.4441 15.0237 34.2693 12.9178 35.1814 10.8336C36.0718 8.81449 36.3759 6.73027 36.1153 4.58092C36.0067 3.7342 36.0067 2.77893 34.9208 2.47498C33.835 2.17104 32.8143 2.14932 31.9022 2.97433C30.1865 4.51579 28.8184 6.33948 28.1234 8.55397C26.6249 13.3303 25.083 18.1284 24.1926 23.0784C23.8886 24.7718 23.6497 26.487 23.3891 28.1804L23.3457 28.1587ZM50.0142 70.5162C52.2293 70.3642 53.7929 69.1267 55.2262 67.7589C58.0277 65.1102 59.9605 61.7885 61.9368 58.5319C62.9358 56.8819 63.0444 54.9496 62.8706 53.0608C62.6752 50.7595 61.459 50.043 59.2656 50.7595C57.2894 51.3891 55.704 52.67 54.5747 54.3634C53.2717 56.2957 52.1424 58.3582 51.0566 60.399C49.5364 63.2648 49.1889 66.3694 49.6015 69.5392C49.645 69.8431 49.8404 70.1254 49.9924 70.4945L50.0142 70.5162ZM230.417 50.043C230.613 50.1082 230.786 50.1733 230.982 50.2384C231.916 48.5667 233.002 46.9818 233.762 45.245C235.173 42.0101 236.476 38.6883 237.714 35.3883C238.887 32.262 240.103 29.1357 240.95 25.9225C241.884 22.3837 242.47 18.7363 243.078 15.1323C243.274 13.9599 243.73 12.6573 243.013 11.3981C241.819 11.5283 241.363 12.4619 240.972 13.2218C239.973 15.1757 239.017 17.1731 238.257 19.2356C237.41 21.5369 236.715 23.9251 236.064 26.2916C234.587 31.6324 233.11 36.9949 231.785 42.3792C231.156 44.8976 230.873 47.4812 230.439 50.043H230.417ZM52.2076 73.23C53.0111 74.3807 53.9449 74.5543 55.0091 74.576C58.3969 74.6195 61.3287 73.4688 63.7176 71.1241C64.8903 69.9734 66.0196 68.6925 66.8448 67.2813C68.7342 64.0247 68.3867 60.4207 67.909 56.8819C67.6918 55.3404 66.9534 53.9075 65.7373 52.4312C65.607 53.2996 65.4115 53.8858 65.4549 54.472C65.6721 57.251 64.5863 59.5523 63.0226 61.7234C61.9368 63.2431 60.9378 64.828 59.9171 66.3911C58.9181 67.8892 57.9409 69.3655 56.3121 70.3208C54.9005 71.1458 53.6192 72.2096 52.2076 73.23ZM185.832 67.9109C187.048 67.4115 187.917 67.2813 188.482 66.7819C191.566 64.0464 194.715 61.3543 197.581 58.3799C198.993 56.9253 199.492 54.7977 199.471 52.7134C197.625 52.3443 196.104 52.8003 194.324 54.1029C190.371 56.9687 187.635 60.7029 186.093 65.3273C185.876 65.9786 185.941 66.7168 185.854 67.9109H185.832ZM123.114 64.2852C123.982 63.7207 124.655 63.4168 125.177 62.9174C127.066 61.1155 128.912 59.2918 130.715 57.4029C132.43 55.6009 133.342 53.3647 133.777 50.9549C134.037 49.5437 133.407 48.1976 131.496 48.7838C129.868 49.3049 128.521 50.195 127.414 51.4976C125.85 53.343 124.764 55.4924 123.678 57.62C122.658 59.6608 122.332 61.7668 123.092 64.2852H123.114ZM213.782 65.1536C214.238 64.9148 214.586 64.828 214.803 64.6109C216.996 62.4832 219.276 60.399 221.34 58.1411C222.556 56.8385 223.598 55.3187 224.51 53.7773C225.314 52.4312 224.423 51.2154 222.838 51.3457C222.187 51.4108 221.47 51.5845 220.949 51.9536C219.798 52.7351 218.625 53.5384 217.669 54.5588C215.063 57.2944 214.412 60.8983 213.521 64.372C213.478 64.524 213.63 64.7411 213.804 65.1536H213.782ZM227.768 54.8194C227.42 54.8411 227.203 54.8194 227.073 54.8845C226.856 55.0148 226.66 55.2102 226.508 55.4273C223.902 59.422 220.97 63.0911 216.996 65.8484C216.019 66.5214 215.346 67.6286 214.564 68.5405C215.389 69.4958 216.128 69.1701 216.866 68.7793C219.971 67.0859 222.425 64.676 224.337 61.7234C224.814 61.0069 225.401 60.3339 225.792 59.574C226.573 58.076 227.638 56.6865 227.768 54.8194ZM246.575 62.3964C250.723 59.7477 253.568 56.5345 254.48 51.8016C253.763 51.2154 253.133 51.6062 252.503 52.0187C250.419 53.3647 248.985 55.2753 248.03 57.4898C247.4 58.9227 246.336 60.247 246.575 62.3964ZM185.876 71.2543C187.895 73.2517 188.764 73.2734 190.697 71.9056C192.608 70.5596 193.976 68.8227 194.975 66.7168C195.41 65.7832 195.952 64.9148 196.452 64.003C196.322 63.8944 196.191 63.7859 196.061 63.6773C194.888 64.7194 193.65 65.6747 192.543 66.7819C190.914 68.4102 189.264 69.9083 186.962 70.4945C186.614 70.5813 186.332 70.907 185.876 71.2326V71.2543Z"/>
</mask>
<path d="M47.3213 71.9274C47.2778 70.3642 47.2778 69.1701 47.2127 67.976C46.9303 64.0681 48.2334 60.5944 50.0142 57.2292C50.4485 56.4042 50.9914 55.6227 51.4258 54.7977C52.6419 52.4529 54.6616 50.868 56.6596 49.3266C57.9626 48.3062 59.6131 48.0456 61.2419 48.0891C62.9575 48.1325 63.8045 48.7187 65.2812 50.8029C66.2368 50.1299 67.3226 50.0213 68.4085 50.5207C71.4054 51.9318 74.0549 50.8246 76.5741 49.2831C78.3331 48.1976 79.9185 46.8516 81.6558 45.7226C82.3508 45.2667 83.2195 44.8976 84.0447 44.7673C85.5649 44.5285 87.3674 45.1581 87.628 47.3943C87.7583 48.5667 87.9755 49.7391 88.1926 51.2805C89.3654 50.0213 90.3426 48.9575 91.3199 47.8937C92.7749 46.3522 94.5123 45.4404 96.684 45.614C98.7037 45.766 99.2249 46.3305 99.4421 48.3496C99.5289 49.218 99.5072 50.0864 99.5289 51.1937C100.05 50.9332 100.398 50.8246 100.658 50.6075C101.549 49.891 102.417 49.1746 103.264 48.393C104.698 47.047 106.435 46.7647 108.303 46.8298C108.563 46.8298 108.846 46.895 109.084 47.0035C110.387 47.5897 112.255 50.6943 112.038 52.149C111.69 54.4503 111.517 56.7516 110.691 59.0095C109.845 61.376 109.497 63.9595 109.215 66.478C108.932 68.9964 110.214 70.0819 112.776 69.6694C114.557 69.3872 116.316 68.9313 117.815 67.824C118.575 67.2813 119.422 66.8905 120.312 66.3911C120.312 66.174 120.312 65.8918 120.29 65.653C119.443 60.7029 120.964 56.3825 123.83 52.4529C124.96 50.9114 126.176 49.37 127.587 48.0891C128.478 47.2641 129.737 46.6996 130.91 46.3739C134.602 45.3969 136.947 48.0891 136.209 51.8233C135.471 55.5141 133.429 58.2931 130.932 60.8549C129.107 62.7003 127.131 64.3938 125.242 66.174C124.808 66.5648 124.46 67.0425 124.113 67.4333C124.721 68.9096 125.741 69.4523 127.088 69.6694C130.172 70.1688 133.234 70.5813 136.057 68.7576C136.947 68.1714 137.838 67.5418 138.576 66.7819C140.813 64.5674 142.724 62.1358 144.201 59.2918C146.047 55.7529 148.11 52.3226 150.216 48.9141C150.868 47.8502 151.845 46.9384 152.844 46.1568C154.994 44.4634 156.992 45.2884 157.492 47.9805C157.557 48.3713 157.687 48.7404 157.883 49.4351C158.664 48.9575 159.403 48.6535 159.946 48.1542C160.923 47.2206 162.117 46.895 163.312 46.4608C165.027 45.8529 166.33 46.4825 167.395 47.7417C168.22 48.697 168.936 49.7174 169.697 50.716C170.913 49.9345 172.02 49.0877 173.236 48.4581C175.864 47.1121 177.732 48.0239 178.514 50.9114C179.274 53.6253 179.143 56.3174 178.622 59.0529C178.253 60.9418 178.014 62.8957 177.992 64.8063C177.949 66.7819 180.164 68.6273 182.054 68.3451C182.466 68.28 182.966 67.8023 183.139 67.3898C183.53 66.4563 183.704 65.4576 183.986 64.5023C185.181 60.5944 187.179 57.1207 190.176 54.3634C192.369 52.3443 194.758 50.4989 197.885 49.9128C200.578 49.4134 202.142 50.4555 202.402 53.2345C202.424 53.5601 202.402 53.9292 202.511 54.2332C203.532 56.6431 202.511 58.7924 201.621 60.9201C200.513 63.5905 199.992 66.2609 200.752 69.105C201.121 70.4945 201.534 70.8635 203.01 70.907C205.399 70.9721 207.68 70.6898 209.547 68.953C210.22 68.3451 210.698 67.7372 210.72 66.7602C210.785 63.1345 211.958 59.726 213.456 56.5345C214.933 53.4082 217.452 50.9549 220.579 49.4351C222.491 48.5016 224.641 48.545 226.378 50.2384C226.573 50.4121 226.791 50.5641 227.008 50.716C227.051 50.7595 227.138 50.7595 227.486 50.8246C227.703 49.9128 227.942 48.9792 228.137 48.0456C228.919 44.3114 229.592 40.5555 230.482 36.8647C231.286 33.5646 232.524 30.3515 233.262 27.0297C234.131 23.1652 235.521 19.4744 236.824 15.7619C237.432 14.0251 238.149 12.3099 239.408 10.8119C240.603 9.37897 242.123 8.66252 243.73 8.0112C244.642 7.64212 245.684 8.46712 245.771 9.61779C245.858 10.9421 245.88 12.3099 245.771 13.6343C245.467 17.6942 244.49 21.6672 243.643 25.6403C243.1 28.2238 242.144 30.612 241.124 33.0219C239.777 36.235 238.843 39.6002 237.475 42.7917C235.781 46.6996 234.087 50.6509 231.699 54.2115C230.917 55.3838 230.591 56.6213 230.656 58.0108C230.743 60.2904 230.96 62.5049 232.415 64.4806C233.306 65.6747 234.24 66.5214 235.716 66.8254C238.518 67.4115 240.82 67.1076 243.339 65.1536C243.6 63.547 243.665 61.8319 244.186 60.2904C244.837 58.3365 245.728 56.426 246.814 54.6674C247.747 53.1694 249.029 51.8233 250.31 50.5858C251.048 49.8693 252.047 49.3483 253.025 48.9792C254.219 48.5016 255.435 48.6535 256.282 49.7825C257.108 50.8463 257.498 51.9536 256.803 53.2996C256.369 54.1246 256.217 55.0799 255.804 55.9266C255.218 57.099 254.523 58.2496 253.828 59.3569C252.33 61.7234 249.963 63.1997 247.878 64.9582C246.618 66.0221 246.401 66.7602 247.139 68.0629C247.4 68.5188 247.986 69.0181 248.464 69.0833C252.482 69.5175 256.347 69.778 259.931 66.999C262.863 64.7194 265.143 62.0273 267.076 58.9661C268.096 57.3378 268.248 57.3595 269.66 58.901C268.227 62.8523 265.599 65.8484 262.102 68.1931C261.668 68.4971 261.147 68.7793 260.843 69.1918C259.431 71.1241 257.368 71.6451 255.218 71.8188C253.22 71.9708 251.2 72.0793 249.203 71.9491C247.509 71.8405 245.967 71.1241 244.968 69.6043C244.642 69.105 244.294 68.6273 243.99 68.1714C235.434 71.2977 231.091 69.7129 228.137 61.3543C227.355 61.5062 226.856 62.049 226.617 62.722C226.009 64.372 224.793 65.4793 223.511 66.5648C222.447 67.4767 221.492 68.4971 220.427 69.4089C219.776 69.9734 219.059 70.4945 218.321 70.9504C216.627 72.0576 214.781 72.3833 213.065 71.1675C211.849 70.2991 210.981 70.7767 210.003 71.4497C208.049 72.8392 205.877 73.5991 203.467 73.6859C200.882 73.7728 199.471 72.9695 198.385 70.603C198.102 69.9951 197.885 69.3655 197.516 68.4754C197.017 68.9747 196.582 69.3004 196.256 69.7346C194.563 71.9491 192.608 73.8162 190.111 75.1188C189.198 75.5747 188.286 75.7919 187.418 75.4445C185.745 74.7932 183.965 74.1636 183.335 72.1662C183.096 71.4063 182.553 71.1458 181.836 71.0589C181.445 71.0155 181.033 70.907 180.664 70.8201C176.668 69.8214 174.887 67.2161 175.43 63.1345C175.799 60.2904 176.212 57.4464 176.537 54.5805C176.624 53.799 176.494 52.9522 176.277 52.1924C175.908 50.7595 175.234 50.4121 173.91 50.9766C173.258 51.2588 172.628 51.7147 172.172 52.2575C169.892 54.8411 168.719 57.924 168.111 61.2674C167.981 61.9622 167.655 62.6569 167.243 63.2431C167.025 63.5253 166.374 63.7424 166.026 63.6339C165.679 63.5253 165.266 63.0043 165.245 62.6352C165.201 61.7885 165.288 60.8983 165.462 60.0733C165.94 57.6417 166.548 55.2536 167.004 52.822C167.286 51.3239 166.374 49.8042 164.897 49.0878C163.724 48.5233 162.617 48.7404 161.466 49.9345C160.727 50.6943 160.119 51.5845 159.446 52.4312C158.99 53.0174 158.599 53.647 158.078 54.168C156.949 55.297 156.015 56.3391 155.819 58.1628C155.428 61.7451 154.582 65.2622 153.973 68.8227C153.648 70.7333 153.496 72.6655 153.148 74.5543C152.931 75.7267 151.867 75.705 150.911 75.8787C149.826 74.5109 150.542 73.1432 150.781 71.8188C151.129 69.7997 151.541 67.7806 151.932 65.7615C152.193 64.372 152.453 63.0043 152.736 61.6148C153.517 57.8806 153.561 54.0161 154.886 50.3904C155.103 49.7825 154.886 49.0226 154.842 47.8068C154.017 48.5884 153.452 48.9792 153.126 49.4785C151.606 51.8233 150.064 54.168 148.653 56.5996C147.198 59.0746 145.938 61.6365 144.461 64.1115C143.897 65.0668 143.093 65.9786 142.225 66.6517C139.988 68.3885 138.337 70.8852 135.492 71.8622C134.016 72.3616 132.582 72.8392 130.997 72.5787C130.476 72.4918 129.911 72.4484 129.39 72.5135C126.48 72.8826 124.091 71.7537 122.115 69.8214C121.202 68.953 120.573 69.0615 119.682 69.5826C117.424 70.9287 115.122 72.0359 112.451 72.3833C110.518 72.6221 109.019 71.9925 107.716 70.755C107.325 70.3859 107.021 69.7346 106.978 69.1918C106.782 66.8688 106.565 64.5892 107.304 62.2444C108.237 59.1832 108.694 55.9917 109.454 52.8654C109.801 51.4325 109.084 50.5207 108.151 49.7391C107.304 49.0226 106.348 49.37 105.523 49.8693C103.916 50.8246 102.591 51.9753 101.549 53.6687C99.6809 56.6865 98.8557 60.0733 97.6613 63.3082C97.0315 65.0234 96.5971 65.4576 95.7936 65.2188C95.0552 65.0017 94.7729 64.1767 95.0118 62.5484C95.4461 59.5089 95.9239 56.4477 96.4017 53.4082C96.836 50.7378 96.8577 49.9779 96.3582 48.4364C95.3375 48.0673 94.5992 48.6752 93.8391 49.2397C91.0159 51.3674 89.474 54.4069 87.9972 57.5115C85.8038 62.0707 84.2836 66.8254 83.3715 71.8188C83.2629 72.4701 83.0457 73.1649 82.6548 73.6859C82.3942 74.055 81.7427 74.3807 81.3735 74.3155C80.9609 74.2287 80.4614 73.6859 80.3745 73.2734C80.2225 72.6438 80.3094 71.9274 80.4397 71.276C81.5255 66.5214 82.6765 61.7668 83.7624 56.9904C84.2619 54.7759 84.6962 52.5615 85.022 50.3035C85.1523 49.4134 84.8917 48.4799 84.7831 47.4595C82.8937 47.4377 81.6993 48.5667 80.5917 49.4568C77.6382 51.7799 74.4892 53.5384 70.7322 54.0595C70.6019 54.0595 70.4933 54.168 70.3196 54.2766C70.4499 56.4911 70.515 58.749 70.7756 60.9852C70.9928 62.7872 70.4281 64.4155 69.9286 66.0655C69.6246 67.0642 69.3206 68.0846 68.8211 69.0181C66.91 72.6438 63.5873 74.7497 59.9823 76.1609C57.3545 77.203 54.4227 77.8326 51.5561 76.5517C51.0783 76.3346 50.4919 76.1609 50.1879 75.7918C49.1455 74.5326 47.8425 74.4241 46.3657 74.5543C44.3677 74.728 42.3915 74.5543 40.3935 74.0767C35.8112 73.0346 32.8143 68.6708 32.4234 64.1767C32.1411 60.9635 32.6623 57.9023 33.1835 54.7977C33.4224 53.343 33.6178 51.8667 33.6613 50.4121C33.7047 49.0443 32.8794 48.5016 31.5547 48.8272C30.0997 49.1963 28.8184 49.9562 27.7977 50.9983C26.4512 52.3661 25.1699 53.8424 24.0406 55.4056C22.6725 57.2944 21.2826 59.2266 20.2401 61.3108C19.176 63.4602 18.3725 65.7615 17.7861 68.0846C16.9174 71.4497 16.3094 74.88 15.5927 78.2669C15.4624 78.8313 15.2887 79.3741 15.1367 79.9169C13.2038 79.5695 12.8781 79.2873 13.0953 77.7675C13.6816 73.5122 14.3548 69.2787 15.0064 65.0451C15.419 62.3964 15.7882 59.7477 16.2442 57.099C16.8523 53.3865 17.569 49.6957 18.1553 46.0048C18.4811 44.0292 18.6331 42.0101 18.8503 40.0127C18.8937 39.5568 18.8503 39.1009 18.8068 38.2107C17.2215 39.318 15.8533 40.1647 14.5937 41.1851C13.0735 42.4009 11.7271 43.8121 10.2069 44.9844C9.09933 45.8312 7.81802 46.4825 6.55844 47.0904C4.99481 47.8502 3.36604 48.4799 1.75898 49.1529C1.17262 49.4134 0.607979 49.5654 0.173639 48.8706C-0.325852 48.0891 0.173639 47.5463 0.694847 47.1555C1.21606 46.7647 1.86757 46.5042 2.47564 46.2437C6.2544 44.6371 9.68569 42.5311 12.6609 39.6219C14.5937 37.7114 16.8523 36.1048 18.9588 34.3679C19.871 33.6081 20.2836 32.6745 20.479 31.4587C21.478 25.2495 22.4336 19.0185 24.1926 12.9612C25.2351 9.35726 26.2558 5.775 28.536 2.69209C29.9259 0.803265 31.6416 -0.217136 34.0304 0.151945C34.2259 0.173656 34.4431 0.173656 34.6385 0.173656C37.3531 0.260498 37.9829 0.890107 38.3738 3.53881C38.9168 7.14277 37.9178 10.4211 36.5062 13.656C36.0936 14.6329 35.6809 15.6316 35.3118 16.6303C34.139 19.9738 31.8805 22.6659 29.8608 25.4666C27.7542 28.3758 25.3871 31.1113 23.2371 33.9989C22.6073 34.8239 22.0861 35.8443 21.8689 36.8429C21.3694 39.318 21.0871 41.8581 20.6962 44.3548C20.3053 46.8516 19.871 49.37 19.5018 51.8667C19.1977 53.9075 18.9371 55.9266 18.9371 58.076C19.6321 57.1858 20.327 56.3174 21.022 55.4273C22.5204 53.4733 23.8669 51.3457 25.5608 49.5654C27.7325 47.2423 30.4471 45.8746 33.8133 46.2219C34.9208 46.3522 35.7678 46.8516 35.985 47.9805C36.1804 48.9575 36.3759 49.9779 36.289 50.9549C36.0936 52.9522 35.7244 54.9496 35.3335 56.9036C34.7688 59.7694 34.8123 62.6569 35.2683 65.501C35.8981 69.4306 38.9385 71.8622 43.2167 72.101C44.4763 72.1662 45.7359 72.0576 47.2995 71.9925L47.3213 71.9274ZM23.3457 28.1587C23.4977 28.2889 23.6497 28.4409 23.8235 28.5712C24.3881 28.0718 24.9745 27.5942 25.5391 27.0949C27.6891 25.1192 28.9487 22.5139 30.5557 20.1475C31.229 19.1488 31.9456 18.1718 32.4668 17.0863C33.4441 15.0237 34.2693 12.9178 35.1814 10.8336C36.0718 8.81449 36.3759 6.73027 36.1153 4.58092C36.0067 3.7342 36.0067 2.77893 34.9208 2.47498C33.835 2.17104 32.8143 2.14932 31.9022 2.97433C30.1865 4.51579 28.8184 6.33948 28.1234 8.55397C26.6249 13.3303 25.083 18.1284 24.1926 23.0784C23.8886 24.7718 23.6497 26.487 23.3891 28.1804L23.3457 28.1587ZM50.0142 70.5162C52.2293 70.3642 53.7929 69.1267 55.2262 67.7589C58.0277 65.1102 59.9605 61.7885 61.9368 58.5319C62.9358 56.8819 63.0444 54.9496 62.8706 53.0608C62.6752 50.7595 61.459 50.043 59.2656 50.7595C57.2894 51.3891 55.704 52.67 54.5747 54.3634C53.2717 56.2957 52.1424 58.3582 51.0566 60.399C49.5364 63.2648 49.1889 66.3694 49.6015 69.5392C49.645 69.8431 49.8404 70.1254 49.9924 70.4945L50.0142 70.5162ZM230.417 50.043C230.613 50.1082 230.786 50.1733 230.982 50.2384C231.916 48.5667 233.002 46.9818 233.762 45.245C235.173 42.0101 236.476 38.6883 237.714 35.3883C238.887 32.262 240.103 29.1357 240.95 25.9225C241.884 22.3837 242.47 18.7363 243.078 15.1323C243.274 13.9599 243.73 12.6573 243.013 11.3981C241.819 11.5283 241.363 12.4619 240.972 13.2218C239.973 15.1757 239.017 17.1731 238.257 19.2356C237.41 21.5369 236.715 23.9251 236.064 26.2916C234.587 31.6324 233.11 36.9949 231.785 42.3792C231.156 44.8976 230.873 47.4812 230.439 50.043H230.417ZM52.2076 73.23C53.0111 74.3807 53.9449 74.5543 55.0091 74.576C58.3969 74.6195 61.3287 73.4688 63.7176 71.1241C64.8903 69.9734 66.0196 68.6925 66.8448 67.2813C68.7342 64.0247 68.3867 60.4207 67.909 56.8819C67.6918 55.3404 66.9534 53.9075 65.7373 52.4312C65.607 53.2996 65.4115 53.8858 65.4549 54.472C65.6721 57.251 64.5863 59.5523 63.0226 61.7234C61.9368 63.2431 60.9378 64.828 59.9171 66.3911C58.9181 67.8892 57.9409 69.3655 56.3121 70.3208C54.9005 71.1458 53.6192 72.2096 52.2076 73.23ZM185.832 67.9109C187.048 67.4115 187.917 67.2813 188.482 66.7819C191.566 64.0464 194.715 61.3543 197.581 58.3799C198.993 56.9253 199.492 54.7977 199.471 52.7134C197.625 52.3443 196.104 52.8003 194.324 54.1029C190.371 56.9687 187.635 60.7029 186.093 65.3273C185.876 65.9786 185.941 66.7168 185.854 67.9109H185.832ZM123.114 64.2852C123.982 63.7207 124.655 63.4168 125.177 62.9174C127.066 61.1155 128.912 59.2918 130.715 57.4029C132.43 55.6009 133.342 53.3647 133.777 50.9549C134.037 49.5437 133.407 48.1976 131.496 48.7838C129.868 49.3049 128.521 50.195 127.414 51.4976C125.85 53.343 124.764 55.4924 123.678 57.62C122.658 59.6608 122.332 61.7668 123.092 64.2852H123.114ZM213.782 65.1536C214.238 64.9148 214.586 64.828 214.803 64.6109C216.996 62.4832 219.276 60.399 221.34 58.1411C222.556 56.8385 223.598 55.3187 224.51 53.7773C225.314 52.4312 224.423 51.2154 222.838 51.3457C222.187 51.4108 221.47 51.5845 220.949 51.9536C219.798 52.7351 218.625 53.5384 217.669 54.5588C215.063 57.2944 214.412 60.8983 213.521 64.372C213.478 64.524 213.63 64.7411 213.804 65.1536H213.782ZM227.768 54.8194C227.42 54.8411 227.203 54.8194 227.073 54.8845C226.856 55.0148 226.66 55.2102 226.508 55.4273C223.902 59.422 220.97 63.0911 216.996 65.8484C216.019 66.5214 215.346 67.6286 214.564 68.5405C215.389 69.4958 216.128 69.1701 216.866 68.7793C219.971 67.0859 222.425 64.676 224.337 61.7234C224.814 61.0069 225.401 60.3339 225.792 59.574C226.573 58.076 227.638 56.6865 227.768 54.8194ZM246.575 62.3964C250.723 59.7477 253.568 56.5345 254.48 51.8016C253.763 51.2154 253.133 51.6062 252.503 52.0187C250.419 53.3647 248.985 55.2753 248.03 57.4898C247.4 58.9227 246.336 60.247 246.575 62.3964ZM185.876 71.2543C187.895 73.2517 188.764 73.2734 190.697 71.9056C192.608 70.5596 193.976 68.8227 194.975 66.7168C195.41 65.7832 195.952 64.9148 196.452 64.003C196.322 63.8944 196.191 63.7859 196.061 63.6773C194.888 64.7194 193.65 65.6747 192.543 66.7819C190.914 68.4102 189.264 69.9083 186.962 70.4945C186.614 70.5813 186.332 70.907 185.876 71.2326V71.2543Z" fill="#00474D" stroke="#00474D" stroke-width="40" mask="url(#path-1-inside-1_10_203)"/>
<mask id="path-2-inside-2_10_203" fill="white">
<path d="M458.033 37.4727C457.599 37.1905 457.447 37.0168 457.273 36.9734C454.906 36.4523 453.451 34.6069 451.714 33.1957C450.78 32.4576 450.302 31.4372 450.541 30.2431C451.323 29.7438 451.692 30.2431 452.126 30.6773C453.864 32.3925 455.992 33.4346 458.251 34.2596C458.403 34.3247 458.642 34.2161 459.076 34.1293C459.684 32.0885 460.357 29.9391 460.922 27.7681C461.899 24.0121 462.768 20.2345 463.745 16.5003C463.832 16.1529 464.505 15.7621 464.918 15.7621C465.591 15.7621 466.221 16.7825 466.09 17.5858C465.786 19.4963 465.504 21.4069 465.048 23.274C464.288 26.3786 463.376 29.4615 462.529 32.5661C462.377 33.1306 462.29 33.7168 462.138 34.455C465.634 35.6708 468.783 33.999 471.954 33.63C472.823 35.4102 472.497 36.3438 470.781 36.5826C468.262 36.9517 465.721 37.2122 463.202 37.3425C460.987 37.451 460.9 37.3642 460.183 39.4918C458.967 43.0958 457.795 46.7432 456.622 50.3689C456.361 51.1939 456.122 52.0406 455.797 52.8439C455.058 54.6676 455.145 56.513 455.493 58.3801C455.71 59.5308 456.34 60.1604 457.512 60.5946C461.964 62.1795 465.656 60.5295 469.109 57.9676C471.216 56.4044 472.823 54.3202 474.365 52.236C474.777 51.6715 475.016 50.9116 475.19 50.1952C475.993 46.5478 476.797 42.8787 477.535 39.2096C478.447 34.6069 479.316 30.0043 480.141 25.3799C480.511 23.274 481.423 21.4503 482.53 19.6917C483.117 18.7365 484.963 18.1937 485.896 18.6062C486.939 19.0621 487.742 20.6253 487.482 21.8194C487.178 23.2523 486.874 24.6852 486.483 26.1181C485.679 29.1576 485.028 32.2622 483.942 35.1931C482.248 39.7524 480.228 44.1813 478.382 48.6754C477.818 50.0432 477.34 51.4327 476.884 52.8222C476.732 53.2998 476.797 53.8209 476.754 54.6893C477.34 54.2985 477.666 54.1248 477.905 53.886C479.251 52.5834 480.554 51.259 481.879 49.9564C482.205 49.6307 482.552 49.2833 482.965 49.0879C486.439 47.286 489.436 48.0024 490.109 52.5399C490.435 54.711 490.327 56.9472 490.392 59.1617C490.435 60.5729 490.305 61.9841 490.479 63.3735C490.848 66.2176 492.889 67.7808 495.712 67.39C498.927 66.9341 501.837 66.0005 504.421 63.7426C506.636 61.7887 508.2 59.6827 508.895 56.8604C509.068 56.1439 509.438 55.4274 510.306 55.3406C511.392 55.2321 512.348 56.361 511.826 57.3597C510.458 60.0084 509.264 62.8308 506.788 64.7413C505.355 65.8486 503.878 66.869 502.38 67.8894C500.555 69.1486 498.384 69.2788 496.277 69.6696C494.866 69.9302 493.519 70.0387 492.129 69.4959C490.24 68.7578 488.893 67.4986 488.502 65.5229C488.177 63.8295 488.133 62.0709 488.046 60.3341C487.916 57.859 488.046 55.3623 487.699 52.9307C487.33 50.3037 485.44 49.8044 483.442 51.6498C482.704 52.3228 481.987 53.0393 481.314 53.7774C480.272 54.9064 479.229 56.0354 478.317 57.2511C477.883 57.859 477.774 58.7058 477.47 59.4222C476.536 61.5499 476.536 64.0466 474.908 65.892C474.69 66.1308 474.43 66.3479 474.213 66.565C473.257 66.3262 473.018 65.8269 473.127 64.915C473.387 62.9828 473.561 61.0505 473.735 59.1183C473.778 58.684 473.691 58.2281 473.67 57.5985C473.149 57.8373 472.779 57.9459 472.475 58.163C470.868 59.2485 469.348 60.5077 467.676 61.463C464.657 63.1999 461.487 64.2637 457.903 63.1999C456.709 62.8525 455.319 62.9176 454.428 61.8972C453.842 61.2025 453.429 60.3341 452.995 59.5091C452.735 59.0097 452.604 58.4235 452.344 57.6636C451.062 58.988 450.02 60.1821 448.847 61.2459C446.871 63.0696 444.699 64.6545 442.006 65.2841C440.486 65.6315 439.053 65.6532 437.576 64.6979C435.187 63.1564 435.122 63.265 433.797 61.3979C432.255 62.1795 430.735 63.0045 429.193 63.7426C427.195 64.6979 425.11 64.5893 423.134 63.8729C422.135 63.5255 421.31 62.592 420.268 61.8104C419.312 62.44 418.248 63.2216 417.097 63.8512C414.665 65.1755 412.037 65.5012 409.322 64.915C407.715 64.5676 406.825 63.417 406.369 61.9189C406.086 60.9637 405.848 60.0084 405.543 58.8794C402.851 59.1617 400.245 59.4222 397.617 59.6827C397.617 60.117 397.573 60.3558 397.66 60.5077C399.115 62.7222 399.723 65.2624 400.57 67.694C401.656 70.8637 402.742 74.0118 403.828 77.1815C405.478 82.0447 406.238 87.0816 406.803 92.1402C407.411 97.5461 407.194 103.017 405.565 108.249C404.566 111.463 402.851 114.328 399.332 115.631C397.465 116.326 396.031 115.87 394.468 114.871C390.798 112.505 389.603 108.879 388.952 104.863C387.888 98.1974 387.627 91.554 388.561 84.8454C388.8 83.1302 388.604 81.3717 388.756 79.6348C389.147 75.3795 389.625 71.1243 390.059 66.8473C390.211 65.3709 390.32 63.8946 390.407 62.44C390.428 61.9406 390.255 61.4196 390.146 60.6814C389.408 61.1156 388.821 61.4196 388.278 61.7887C386.454 63.0913 384.5 63.7426 382.241 63.5255C381.503 63.4604 380.743 63.6341 380.048 63.4821C379.613 63.3953 379.136 62.9176 378.984 62.5051C378.897 62.2446 379.266 61.6367 379.592 61.4413C380.069 61.1373 380.764 60.8117 381.242 60.942C384.739 61.8104 387.149 59.8781 389.56 57.9025C390.689 56.9689 391.514 55.9919 391.623 54.2768C391.818 51.3024 392.557 48.3498 392.969 45.3971C393.36 42.6833 393.577 39.9695 393.925 37.2556C394.077 36.1267 394.337 35.0194 394.555 33.9122C394.967 31.5457 395.336 29.1793 395.793 26.8128C396.379 23.795 396.965 20.7773 397.639 17.7812C398.312 14.72 398.963 11.6371 399.854 8.61929C400.31 7.03441 401.092 5.49296 401.982 4.10348C402.742 2.88768 403.915 1.99754 405.543 2.34491C407.064 2.64886 407.911 3.71268 408.432 5.12388C409.626 8.33705 409.843 11.7022 409.583 15.0456C409.105 21.1246 407.889 27.0733 406.13 32.9569C404.957 36.8866 403.459 40.6642 401.852 44.3767C400.288 47.959 398.789 51.6281 396.292 54.7544C395.51 55.7314 395.749 56.361 396.965 56.5347C398.268 56.6867 399.615 56.7084 400.939 56.6867C402.264 56.665 403.611 56.513 404.935 56.4261C406.217 56.361 407.216 55.9702 407.78 54.6459C409.149 51.4978 411.255 48.784 413.275 46.0267C415.229 43.3563 418.965 42.1188 422.005 43.2261C424.003 43.9642 425.111 45.6794 424.785 47.7636C424.654 48.5886 424.459 49.2616 425.176 49.9781C425.827 50.6294 425.545 51.411 425.263 52.236C424.524 54.2985 423.742 56.3827 423.243 58.5321C422.743 60.6597 423.894 61.9189 426.175 61.9406C428.303 61.9624 430.019 60.9202 431.604 59.661C432.95 58.5972 433.537 57.1209 434.101 55.4926C435.144 52.3228 436.577 49.305 437.858 46.2004C438.162 45.4623 438.423 44.7024 438.749 43.9642C439.053 43.2912 439.596 42.9004 440.378 43.1392C441.225 43.4215 441.507 44.0728 441.268 44.8978C441.094 45.5491 440.812 46.157 440.595 46.7866C439.574 49.5439 438.466 52.2577 437.554 55.0584C437.12 56.3827 436.925 57.8156 436.881 59.2051C436.816 61.463 438.358 62.9828 440.66 62.961C441.572 62.961 442.549 62.7222 443.353 62.3097C446.458 60.7031 448.76 58.2064 450.758 55.384C451.345 54.559 451.974 53.7774 452.431 52.8873C453.082 51.5847 453.668 50.2386 454.146 48.8708C455.102 46.0919 455.927 43.2695 456.839 40.4905C457.165 39.4918 457.621 38.5366 458.077 37.4727H458.033ZM393.339 58.7275C392.904 61.7887 392.405 64.5459 392.122 67.3249C391.623 72.0361 391.189 76.769 390.885 81.5019C390.559 86.6908 389.972 91.8796 390.428 97.0902C390.754 100.738 390.776 104.385 392.057 107.946C392.73 109.813 393.751 111.224 395.228 112.418C396.422 113.395 397.747 113.569 399.18 113.113C401.482 112.396 402.547 110.334 403.241 108.445C404.631 104.537 405.261 100.412 404.87 96.2218C404.523 92.6178 404.24 89.0138 403.654 85.4533C403.111 82.175 402.351 78.8967 401.374 75.7052C400.266 72.1229 398.876 68.6492 397.508 65.1538C396.618 62.8525 395.445 60.7031 393.339 58.7275ZM394.446 52.5182C394.62 52.5399 394.794 52.5616 394.989 52.5834C396.683 50.2603 397.943 47.6767 399.028 45.028C400.418 41.6195 402.004 38.2977 403.285 34.8675C405.044 30.1563 405.869 25.1845 406.76 20.2345C406.912 19.3878 407.194 18.5411 407.237 17.6943C407.368 15.3713 407.368 13.0266 407.52 10.7035C407.65 8.4456 406.825 6.53507 405.717 4.58111C404.262 4.77651 403.567 5.7752 403.111 6.86073C402.503 8.33705 401.938 9.83509 401.548 11.3983C400.679 14.8937 400.006 18.4325 399.159 21.9496C397.899 27.1602 397.096 32.4359 396.205 37.7116C395.619 41.1418 395.206 44.5938 394.794 48.0458C394.62 49.5439 394.576 51.0419 394.49 52.5399L394.446 52.5182ZM410.017 55.2755C410.69 55.2755 411.081 55.2755 411.451 55.2321C413.535 54.9715 415.381 54.038 417.227 53.061C419.421 51.8886 421.071 50.1952 422.179 47.9807C422.874 46.5912 422.548 46.0267 421.223 45.2452C419.529 44.2465 416.923 45.5925 415.642 46.9169C414.078 48.5452 412.71 50.3689 411.385 52.2143C410.799 53.0393 410.538 54.1031 410.039 55.2755H410.017ZM421.071 53.6255C420.68 53.7557 420.42 53.7992 420.202 53.9294C417.119 55.9919 413.818 57.5334 410.169 58.2498C409.083 58.4669 408.606 59.1183 408.606 60.2472C408.606 61.4847 408.844 61.9841 410.039 62.3314C411.993 62.8742 413.883 62.961 415.859 61.9189C418.052 60.7466 419.247 58.8143 420.528 56.8821C421.136 55.9702 421.419 54.9715 421.071 53.6255ZM480.359 37.082C480.576 37.1254 480.815 37.1905 481.032 37.2339C481.879 34.8675 482.878 32.5444 483.551 30.1128C484.246 27.6161 484.659 25.0108 485.158 22.449C485.245 22.0148 485.028 21.5371 484.963 21.1029C484.789 21.1029 484.615 21.1029 484.463 21.1029C481.531 26.0312 481.054 31.5674 480.38 37.082H480.359Z"/>
</mask>
<path d="M458.033 37.4727C457.599 37.1905 457.447 37.0168 457.273 36.9734C454.906 36.4523 453.451 34.6069 451.714 33.1957C450.78 32.4576 450.302 31.4372 450.541 30.2431C451.323 29.7438 451.692 30.2431 452.126 30.6773C453.864 32.3925 455.992 33.4346 458.251 34.2596C458.403 34.3247 458.642 34.2161 459.076 34.1293C459.684 32.0885 460.357 29.9391 460.922 27.7681C461.899 24.0121 462.768 20.2345 463.745 16.5003C463.832 16.1529 464.505 15.7621 464.918 15.7621C465.591 15.7621 466.221 16.7825 466.09 17.5858C465.786 19.4963 465.504 21.4069 465.048 23.274C464.288 26.3786 463.376 29.4615 462.529 32.5661C462.377 33.1306 462.29 33.7168 462.138 34.455C465.634 35.6708 468.783 33.999 471.954 33.63C472.823 35.4102 472.497 36.3438 470.781 36.5826C468.262 36.9517 465.721 37.2122 463.202 37.3425C460.987 37.451 460.9 37.3642 460.183 39.4918C458.967 43.0958 457.795 46.7432 456.622 50.3689C456.361 51.1939 456.122 52.0406 455.797 52.8439C455.058 54.6676 455.145 56.513 455.493 58.3801C455.71 59.5308 456.34 60.1604 457.512 60.5946C461.964 62.1795 465.656 60.5295 469.109 57.9676C471.216 56.4044 472.823 54.3202 474.365 52.236C474.777 51.6715 475.016 50.9116 475.19 50.1952C475.993 46.5478 476.797 42.8787 477.535 39.2096C478.447 34.6069 479.316 30.0043 480.141 25.3799C480.511 23.274 481.423 21.4503 482.53 19.6917C483.117 18.7365 484.963 18.1937 485.896 18.6062C486.939 19.0621 487.742 20.6253 487.482 21.8194C487.178 23.2523 486.874 24.6852 486.483 26.1181C485.679 29.1576 485.028 32.2622 483.942 35.1931C482.248 39.7524 480.228 44.1813 478.382 48.6754C477.818 50.0432 477.34 51.4327 476.884 52.8222C476.732 53.2998 476.797 53.8209 476.754 54.6893C477.34 54.2985 477.666 54.1248 477.905 53.886C479.251 52.5834 480.554 51.259 481.879 49.9564C482.205 49.6307 482.552 49.2833 482.965 49.0879C486.439 47.286 489.436 48.0024 490.109 52.5399C490.435 54.711 490.327 56.9472 490.392 59.1617C490.435 60.5729 490.305 61.9841 490.479 63.3735C490.848 66.2176 492.889 67.7808 495.712 67.39C498.927 66.9341 501.837 66.0005 504.421 63.7426C506.636 61.7887 508.2 59.6827 508.895 56.8604C509.068 56.1439 509.438 55.4274 510.306 55.3406C511.392 55.2321 512.348 56.361 511.826 57.3597C510.458 60.0084 509.264 62.8308 506.788 64.7413C505.355 65.8486 503.878 66.869 502.38 67.8894C500.555 69.1486 498.384 69.2788 496.277 69.6696C494.866 69.9302 493.519 70.0387 492.129 69.4959C490.24 68.7578 488.893 67.4986 488.502 65.5229C488.177 63.8295 488.133 62.0709 488.046 60.3341C487.916 57.859 488.046 55.3623 487.699 52.9307C487.33 50.3037 485.44 49.8044 483.442 51.6498C482.704 52.3228 481.987 53.0393 481.314 53.7774C480.272 54.9064 479.229 56.0354 478.317 57.2511C477.883 57.859 477.774 58.7058 477.47 59.4222C476.536 61.5499 476.536 64.0466 474.908 65.892C474.69 66.1308 474.43 66.3479 474.213 66.565C473.257 66.3262 473.018 65.8269 473.127 64.915C473.387 62.9828 473.561 61.0505 473.735 59.1183C473.778 58.684 473.691 58.2281 473.67 57.5985C473.149 57.8373 472.779 57.9459 472.475 58.163C470.868 59.2485 469.348 60.5077 467.676 61.463C464.657 63.1999 461.487 64.2637 457.903 63.1999C456.709 62.8525 455.319 62.9176 454.428 61.8972C453.842 61.2025 453.429 60.3341 452.995 59.5091C452.735 59.0097 452.604 58.4235 452.344 57.6636C451.062 58.988 450.02 60.1821 448.847 61.2459C446.871 63.0696 444.699 64.6545 442.006 65.2841C440.486 65.6315 439.053 65.6532 437.576 64.6979C435.187 63.1564 435.122 63.265 433.797 61.3979C432.255 62.1795 430.735 63.0045 429.193 63.7426C427.195 64.6979 425.11 64.5893 423.134 63.8729C422.135 63.5255 421.31 62.592 420.268 61.8104C419.312 62.44 418.248 63.2216 417.097 63.8512C414.665 65.1755 412.037 65.5012 409.322 64.915C407.715 64.5676 406.825 63.417 406.369 61.9189C406.086 60.9637 405.848 60.0084 405.543 58.8794C402.851 59.1617 400.245 59.4222 397.617 59.6827C397.617 60.117 397.573 60.3558 397.66 60.5077C399.115 62.7222 399.723 65.2624 400.57 67.694C401.656 70.8637 402.742 74.0118 403.828 77.1815C405.478 82.0447 406.238 87.0816 406.803 92.1402C407.411 97.5461 407.194 103.017 405.565 108.249C404.566 111.463 402.851 114.328 399.332 115.631C397.465 116.326 396.031 115.87 394.468 114.871C390.798 112.505 389.603 108.879 388.952 104.863C387.888 98.1974 387.627 91.554 388.561 84.8454C388.8 83.1302 388.604 81.3717 388.756 79.6348C389.147 75.3795 389.625 71.1243 390.059 66.8473C390.211 65.3709 390.32 63.8946 390.407 62.44C390.428 61.9406 390.255 61.4196 390.146 60.6814C389.408 61.1156 388.821 61.4196 388.278 61.7887C386.454 63.0913 384.5 63.7426 382.241 63.5255C381.503 63.4604 380.743 63.6341 380.048 63.4821C379.613 63.3953 379.136 62.9176 378.984 62.5051C378.897 62.2446 379.266 61.6367 379.592 61.4413C380.069 61.1373 380.764 60.8117 381.242 60.942C384.739 61.8104 387.149 59.8781 389.56 57.9025C390.689 56.9689 391.514 55.9919 391.623 54.2768C391.818 51.3024 392.557 48.3498 392.969 45.3971C393.36 42.6833 393.577 39.9695 393.925 37.2556C394.077 36.1267 394.337 35.0194 394.555 33.9122C394.967 31.5457 395.336 29.1793 395.793 26.8128C396.379 23.795 396.965 20.7773 397.639 17.7812C398.312 14.72 398.963 11.6371 399.854 8.61929C400.31 7.03441 401.092 5.49296 401.982 4.10348C402.742 2.88768 403.915 1.99754 405.543 2.34491C407.064 2.64886 407.911 3.71268 408.432 5.12388C409.626 8.33705 409.843 11.7022 409.583 15.0456C409.105 21.1246 407.889 27.0733 406.13 32.9569C404.957 36.8866 403.459 40.6642 401.852 44.3767C400.288 47.959 398.789 51.6281 396.292 54.7544C395.51 55.7314 395.749 56.361 396.965 56.5347C398.268 56.6867 399.615 56.7084 400.939 56.6867C402.264 56.665 403.611 56.513 404.935 56.4261C406.217 56.361 407.216 55.9702 407.78 54.6459C409.149 51.4978 411.255 48.784 413.275 46.0267C415.229 43.3563 418.965 42.1188 422.005 43.2261C424.003 43.9642 425.111 45.6794 424.785 47.7636C424.654 48.5886 424.459 49.2616 425.176 49.9781C425.827 50.6294 425.545 51.411 425.263 52.236C424.524 54.2985 423.742 56.3827 423.243 58.5321C422.743 60.6597 423.894 61.9189 426.175 61.9406C428.303 61.9624 430.019 60.9202 431.604 59.661C432.95 58.5972 433.537 57.1209 434.101 55.4926C435.144 52.3228 436.577 49.305 437.858 46.2004C438.162 45.4623 438.423 44.7024 438.749 43.9642C439.053 43.2912 439.596 42.9004 440.378 43.1392C441.225 43.4215 441.507 44.0728 441.268 44.8978C441.094 45.5491 440.812 46.157 440.595 46.7866C439.574 49.5439 438.466 52.2577 437.554 55.0584C437.12 56.3827 436.925 57.8156 436.881 59.2051C436.816 61.463 438.358 62.9828 440.66 62.961C441.572 62.961 442.549 62.7222 443.353 62.3097C446.458 60.7031 448.76 58.2064 450.758 55.384C451.345 54.559 451.974 53.7774 452.431 52.8873C453.082 51.5847 453.668 50.2386 454.146 48.8708C455.102 46.0919 455.927 43.2695 456.839 40.4905C457.165 39.4918 457.621 38.5366 458.077 37.4727H458.033ZM393.339 58.7275C392.904 61.7887 392.405 64.5459 392.122 67.3249C391.623 72.0361 391.189 76.769 390.885 81.5019C390.559 86.6908 389.972 91.8796 390.428 97.0902C390.754 100.738 390.776 104.385 392.057 107.946C392.73 109.813 393.751 111.224 395.228 112.418C396.422 113.395 397.747 113.569 399.18 113.113C401.482 112.396 402.547 110.334 403.241 108.445C404.631 104.537 405.261 100.412 404.87 96.2218C404.523 92.6178 404.24 89.0138 403.654 85.4533C403.111 82.175 402.351 78.8967 401.374 75.7052C400.266 72.1229 398.876 68.6492 397.508 65.1538C396.618 62.8525 395.445 60.7031 393.339 58.7275ZM394.446 52.5182C394.62 52.5399 394.794 52.5616 394.989 52.5834C396.683 50.2603 397.943 47.6767 399.028 45.028C400.418 41.6195 402.004 38.2977 403.285 34.8675C405.044 30.1563 405.869 25.1845 406.76 20.2345C406.912 19.3878 407.194 18.5411 407.237 17.6943C407.368 15.3713 407.368 13.0266 407.52 10.7035C407.65 8.4456 406.825 6.53507 405.717 4.58111C404.262 4.77651 403.567 5.7752 403.111 6.86073C402.503 8.33705 401.938 9.83509 401.548 11.3983C400.679 14.8937 400.006 18.4325 399.159 21.9496C397.899 27.1602 397.096 32.4359 396.205 37.7116C395.619 41.1418 395.206 44.5938 394.794 48.0458C394.62 49.5439 394.576 51.0419 394.49 52.5399L394.446 52.5182ZM410.017 55.2755C410.69 55.2755 411.081 55.2755 411.451 55.2321C413.535 54.9715 415.381 54.038 417.227 53.061C419.421 51.8886 421.071 50.1952 422.179 47.9807C422.874 46.5912 422.548 46.0267 421.223 45.2452C419.529 44.2465 416.923 45.5925 415.642 46.9169C414.078 48.5452 412.71 50.3689 411.385 52.2143C410.799 53.0393 410.538 54.1031 410.039 55.2755H410.017ZM421.071 53.6255C420.68 53.7557 420.42 53.7992 420.202 53.9294C417.119 55.9919 413.818 57.5334 410.169 58.2498C409.083 58.4669 408.606 59.1183 408.606 60.2472C408.606 61.4847 408.844 61.9841 410.039 62.3314C411.993 62.8742 413.883 62.961 415.859 61.9189C418.052 60.7466 419.247 58.8143 420.528 56.8821C421.136 55.9702 421.419 54.9715 421.071 53.6255ZM480.359 37.082C480.576 37.1254 480.815 37.1905 481.032 37.2339C481.879 34.8675 482.878 32.5444 483.551 30.1128C484.246 27.6161 484.659 25.0108 485.158 22.449C485.245 22.0148 485.028 21.5371 484.963 21.1029C484.789 21.1029 484.615 21.1029 484.463 21.1029C481.531 26.0312 481.054 31.5674 480.38 37.082H480.359Z" fill="#00474D" stroke="#00474D" stroke-width="40" mask="url(#path-2-inside-2_10_203)"/>
<mask id="path-3-inside-3_10_203" fill="white">
<path d="M299.977 48.3932C302.323 47.1991 304.603 47.3077 306.709 47.9373C310.054 48.9577 312.66 50.9116 313.529 54.6024C314.028 56.7084 313.594 58.7058 313.268 60.7248C313.203 61.2025 312.768 61.6367 312.421 62.0275C311.813 62.7222 311.14 63.3518 310.488 63.9814C310.64 64.1551 310.749 64.3288 310.814 64.3071C314.397 63.8946 317.72 62.8959 320.5 60.486C321.108 59.965 321.434 59.4005 321.325 58.5755C321.021 56.2524 321.803 54.0814 322.411 51.8886C322.715 50.8031 323.019 49.6958 323.41 48.632C323.953 47.1774 324.821 45.9182 326.298 45.2234C327.949 44.4419 329.469 45.2886 329.881 47.0906C330.294 48.8274 329.795 50.4123 329.165 51.9537C328.6 53.2998 327.775 54.5373 327.08 55.8399C326.233 57.4248 325.408 59.0097 324.604 60.5512C327.427 62.9393 330.924 62.961 333.53 60.8551C336.635 58.3367 338.916 55.3189 339.784 51.3241C339.85 50.9985 339.958 50.6728 340.088 50.3689C340.393 49.6741 340.892 49.2833 341.674 49.4353C342.521 49.609 342.803 50.1735 342.868 51.0202C343.02 53.0176 343.303 54.9932 343.541 56.9689C343.759 58.7709 343.954 60.5729 344.15 62.3531C344.432 64.6545 344.714 66.9775 345.04 69.7782C345.887 69.1052 346.473 68.7795 346.821 68.3019C350.556 63.3084 354.183 58.2498 355.985 52.1491C356.441 50.6077 356.745 49.0228 357.115 47.4596C357.267 46.8735 357.332 46.2438 357.636 45.7445C357.875 45.3754 358.396 45.028 358.852 44.9412C359.547 44.8326 359.786 45.484 359.764 46.005C359.677 47.4596 359.612 48.9577 359.286 50.3689C358.57 53.582 357.484 56.7084 355.725 59.509C353.705 62.7222 352.141 66.2176 349.405 68.9749C347.95 70.4295 346.864 72.2532 345.648 73.9466C345.474 74.1855 345.366 74.5328 345.344 74.8585C345.279 76.3348 345.235 77.7894 345.214 79.2657C345.083 84.4112 345.214 89.6 344.736 94.7237C344.497 97.2422 343.346 99.7606 342.195 102.062C341.37 103.755 339.936 105.188 338.677 106.643C338.221 107.186 337.548 107.62 336.874 107.88C331.141 110.051 326.667 109.161 322.389 104.385C321.195 103.039 320.608 101.324 320.5 99.4132C320.131 92.0533 323.149 86.4954 329.208 82.5006C332.444 80.373 335.767 78.3539 338.981 76.2045C340.023 75.5098 340.892 74.5328 341.869 73.7295C342.564 73.1433 342.738 72.4703 342.651 71.6019C342.195 67.3466 341.782 63.0696 341.305 58.8143C341.239 58.2498 340.914 57.7288 340.697 57.1209C340.371 57.2946 340.11 57.338 340.045 57.49C338.59 60.2689 335.94 61.8104 333.617 63.6992C332.27 64.7847 330.815 64.8933 329.273 64.8282C327.297 64.763 325.408 64.3071 323.714 63.3301C322.194 62.44 320.912 62.7005 319.696 63.8295C318.371 65.0453 316.873 65.7183 315.049 65.9571C312.855 66.2393 310.705 66.7821 308.577 67.3466C305.906 68.0413 303.387 67.4551 300.933 66.4999C300.325 66.2611 299.717 65.8486 299.347 65.3275C299.065 64.9367 298.956 64.1985 299.108 63.7209C299.304 63.0262 299.977 62.9827 300.607 63.2433C301.041 63.417 301.476 63.6341 301.91 63.786C303.647 64.3939 305.32 64.3505 306.883 63.1782C307.73 62.5485 308.707 62.0492 309.554 61.4196C310.923 60.3775 311.726 59.0314 311.487 57.2511C310.857 52.5834 308.99 50.5208 304.342 49.6307C302.822 49.3268 301.193 50.1518 300.477 51.8886C299.738 53.6472 299.239 55.5577 298.87 57.4465C298.414 59.661 298.24 61.9406 297.892 64.1768C297.805 64.763 297.61 65.3492 297.371 65.892C297.024 66.717 296.307 66.8907 295.525 66.6519C294.809 66.4347 294.7 65.8268 294.809 65.1755C295.308 62.136 295.851 59.0965 296.35 56.0571C296.611 54.4722 296.85 52.8873 297.045 51.2807C297.784 45.6359 298.5 39.9912 299.282 33.999C298.522 34.455 297.936 34.8023 297.349 35.1497C295.351 36.4089 293.31 37.5379 290.986 38.0589C290.4 38.1892 289.814 38.276 289.206 38.3412C288.597 38.4063 288.011 38.1892 288.033 37.5596C288.033 37.1688 288.467 36.6694 288.836 36.4306C289.206 36.1701 289.727 36.1701 290.183 36.0398C292.963 35.3668 295.417 34.0642 297.501 32.1102C297.588 32.0234 297.719 31.9365 297.827 31.8714C300.455 30.6556 301.41 28.4845 301.953 25.7273C302.561 22.6878 303.669 19.7134 304.646 16.7608C305.211 15.0891 306.145 13.6344 307.687 12.614C308.599 12.0279 309.533 11.7022 310.51 12.1581C311.487 12.614 311.769 13.6127 311.639 14.568C311.357 16.6088 311.878 18.6496 311.205 20.7555C310.51 22.9049 309.359 24.5766 307.774 26.0746C306.427 27.3773 305.037 28.6582 303.756 30.026C303.213 30.5905 302.757 31.3286 302.54 32.0668C301.085 37.0168 299.847 42.032 299.825 47.2425C299.825 47.5031 299.869 47.7636 299.912 48.3064L299.977 48.3932ZM342.977 76.8776C342.173 77.3769 341.652 77.6374 341.196 77.9848C340.219 78.6796 339.307 79.4611 338.286 80.0907C335.897 81.5671 333.486 82.9566 331.076 84.3895C327.123 86.7125 324.669 90.2296 323.388 94.5066C322.606 97.0902 322.302 99.8257 323.822 102.301C325.929 105.753 329.317 106.925 333.096 106.73C335.267 106.621 337.244 105.774 338.742 103.777C341.5 100.108 342.89 96.0481 342.999 91.5106C343.107 87.3638 343.151 83.2171 343.194 79.0486C343.194 78.419 343.085 77.7894 342.999 76.8559L342.977 76.8776ZM308.925 15.0673C307.013 16.3049 304.538 22.5575 304.538 26.0964C308.707 23.3608 310.358 18.9101 308.925 15.0673ZM324.648 54.8847C325.712 52.4748 327.775 50.7162 327.254 47.8721C325.56 48.8274 324.192 52.388 324.648 54.8847Z"/>
</mask>
<path d="M299.977 48.3932C302.323 47.1991 304.603 47.3077 306.709 47.9373C310.054 48.9577 312.66 50.9116 313.529 54.6024C314.028 56.7084 313.594 58.7058 313.268 60.7248C313.203 61.2025 312.768 61.6367 312.421 62.0275C311.813 62.7222 311.14 63.3518 310.488 63.9814C310.64 64.1551 310.749 64.3288 310.814 64.3071C314.397 63.8946 317.72 62.8959 320.5 60.486C321.108 59.965 321.434 59.4005 321.325 58.5755C321.021 56.2524 321.803 54.0814 322.411 51.8886C322.715 50.8031 323.019 49.6958 323.41 48.632C323.953 47.1774 324.821 45.9182 326.298 45.2234C327.949 44.4419 329.469 45.2886 329.881 47.0906C330.294 48.8274 329.795 50.4123 329.165 51.9537C328.6 53.2998 327.775 54.5373 327.08 55.8399C326.233 57.4248 325.408 59.0097 324.604 60.5512C327.427 62.9393 330.924 62.961 333.53 60.8551C336.635 58.3367 338.916 55.3189 339.784 51.3241C339.85 50.9985 339.958 50.6728 340.088 50.3689C340.393 49.6741 340.892 49.2833 341.674 49.4353C342.521 49.609 342.803 50.1735 342.868 51.0202C343.02 53.0176 343.303 54.9932 343.541 56.9689C343.759 58.7709 343.954 60.5729 344.15 62.3531C344.432 64.6545 344.714 66.9775 345.04 69.7782C345.887 69.1052 346.473 68.7795 346.821 68.3019C350.556 63.3084 354.183 58.2498 355.985 52.1491C356.441 50.6077 356.745 49.0228 357.115 47.4596C357.267 46.8735 357.332 46.2438 357.636 45.7445C357.875 45.3754 358.396 45.028 358.852 44.9412C359.547 44.8326 359.786 45.484 359.764 46.005C359.677 47.4596 359.612 48.9577 359.286 50.3689C358.57 53.582 357.484 56.7084 355.725 59.509C353.705 62.7222 352.141 66.2176 349.405 68.9749C347.95 70.4295 346.864 72.2532 345.648 73.9466C345.474 74.1855 345.366 74.5328 345.344 74.8585C345.279 76.3348 345.235 77.7894 345.214 79.2657C345.083 84.4112 345.214 89.6 344.736 94.7237C344.497 97.2422 343.346 99.7606 342.195 102.062C341.37 103.755 339.936 105.188 338.677 106.643C338.221 107.186 337.548 107.62 336.874 107.88C331.141 110.051 326.667 109.161 322.389 104.385C321.195 103.039 320.608 101.324 320.5 99.4132C320.131 92.0533 323.149 86.4954 329.208 82.5006C332.444 80.373 335.767 78.3539 338.981 76.2045C340.023 75.5098 340.892 74.5328 341.869 73.7295C342.564 73.1433 342.738 72.4703 342.651 71.6019C342.195 67.3466 341.782 63.0696 341.305 58.8143C341.239 58.2498 340.914 57.7288 340.697 57.1209C340.371 57.2946 340.11 57.338 340.045 57.49C338.59 60.2689 335.94 61.8104 333.617 63.6992C332.27 64.7847 330.815 64.8933 329.273 64.8282C327.297 64.763 325.408 64.3071 323.714 63.3301C322.194 62.44 320.912 62.7005 319.696 63.8295C318.371 65.0453 316.873 65.7183 315.049 65.9571C312.855 66.2393 310.705 66.7821 308.577 67.3466C305.906 68.0413 303.387 67.4551 300.933 66.4999C300.325 66.2611 299.717 65.8486 299.347 65.3275C299.065 64.9367 298.956 64.1985 299.108 63.7209C299.304 63.0262 299.977 62.9827 300.607 63.2433C301.041 63.417 301.476 63.6341 301.91 63.786C303.647 64.3939 305.32 64.3505 306.883 63.1782C307.73 62.5485 308.707 62.0492 309.554 61.4196C310.923 60.3775 311.726 59.0314 311.487 57.2511C310.857 52.5834 308.99 50.5208 304.342 49.6307C302.822 49.3268 301.193 50.1518 300.477 51.8886C299.738 53.6472 299.239 55.5577 298.87 57.4465C298.414 59.661 298.24 61.9406 297.892 64.1768C297.805 64.763 297.61 65.3492 297.371 65.892C297.024 66.717 296.307 66.8907 295.525 66.6519C294.809 66.4347 294.7 65.8268 294.809 65.1755C295.308 62.136 295.851 59.0965 296.35 56.0571C296.611 54.4722 296.85 52.8873 297.045 51.2807C297.784 45.6359 298.5 39.9912 299.282 33.999C298.522 34.455 297.936 34.8023 297.349 35.1497C295.351 36.4089 293.31 37.5379 290.986 38.0589C290.4 38.1892 289.814 38.276 289.206 38.3412C288.597 38.4063 288.011 38.1892 288.033 37.5596C288.033 37.1688 288.467 36.6694 288.836 36.4306C289.206 36.1701 289.727 36.1701 290.183 36.0398C292.963 35.3668 295.417 34.0642 297.501 32.1102C297.588 32.0234 297.719 31.9365 297.827 31.8714C300.455 30.6556 301.41 28.4845 301.953 25.7273C302.561 22.6878 303.669 19.7134 304.646 16.7608C305.211 15.0891 306.145 13.6344 307.687 12.614C308.599 12.0279 309.533 11.7022 310.51 12.1581C311.487 12.614 311.769 13.6127 311.639 14.568C311.357 16.6088 311.878 18.6496 311.205 20.7555C310.51 22.9049 309.359 24.5766 307.774 26.0746C306.427 27.3773 305.037 28.6582 303.756 30.026C303.213 30.5905 302.757 31.3286 302.54 32.0668C301.085 37.0168 299.847 42.032 299.825 47.2425C299.825 47.5031 299.869 47.7636 299.912 48.3064L299.977 48.3932ZM342.977 76.8776C342.173 77.3769 341.652 77.6374 341.196 77.9848C340.219 78.6796 339.307 79.4611 338.286 80.0907C335.897 81.5671 333.486 82.9566 331.076 84.3895C327.123 86.7125 324.669 90.2296 323.388 94.5066C322.606 97.0902 322.302 99.8257 323.822 102.301C325.929 105.753 329.317 106.925 333.096 106.73C335.267 106.621 337.244 105.774 338.742 103.777C341.5 100.108 342.89 96.0481 342.999 91.5106C343.107 87.3638 343.151 83.2171 343.194 79.0486C343.194 78.419 343.085 77.7894 342.999 76.8559L342.977 76.8776ZM308.925 15.0673C307.013 16.3049 304.538 22.5575 304.538 26.0964C308.707 23.3608 310.358 18.9101 308.925 15.0673ZM324.648 54.8847C325.712 52.4748 327.775 50.7162 327.254 47.8721C325.56 48.8274 324.192 52.388 324.648 54.8847Z" fill="#00474D" stroke="#00474D" stroke-width="40" mask="url(#path-3-inside-3_10_203)"/>
<mask id="path-4-inside-4_10_203" fill="white">
<path d="M441.55 33.1306C442.332 33.0004 443.396 33.9991 443.591 35.0195C443.765 35.8662 442.983 36.8866 442.093 37.0168C440.92 37.1688 440.073 36.4958 439.834 35.2583C439.661 34.4116 440.573 33.3043 441.55 33.1523V33.1306Z"/>
</mask>
<path d="M441.55 33.1306C442.332 33.0004 443.396 33.9991 443.591 35.0195C443.765 35.8662 442.983 36.8866 442.093 37.0168C440.92 37.1688 440.073 36.4958 439.834 35.2583C439.661 34.4116 440.573 33.3043 441.55 33.1523V33.1306Z" fill="#00474D" stroke="#00474D" stroke-width="40" mask="url(#path-4-inside-4_10_203)"/>
</g>
<defs>
<clipPath id="clip0_10_203">
<rect width="512" height="116" fill="white"/>
</clipPath>
</defs>
</svg>
